<svg width="392" height="392" viewBox="0 0 392 392" fill="none" xmlns="http://www.w3.org/2000/svg">
<path opacity="0.7" d="M53.2565 130.999C53.2565 130.999 31.3986 187.447 62.1157 244.287C92.8329 301.127 156.102 331.154 206.74 356.83C257.379 382.506 309.962 370.001 334.948 327.947C359.934 285.893 325.665 255.874 325.618 195.906C325.571 135.938 334.595 120.062 302.098 69.3997C269.601 18.7376 189.939 7.51855 129.697 45.0957C69.454 82.6728 53.2565 130.999 53.2565 130.999Z" fill="white"/>
<path d="M86.2396 88.1765C96.7923 75.5697 111.053 65.856 128.05 66.0206C157.058 66.3813 172.738 92.0572 189.375 111.861C197.999 122.131 207.791 132.041 220.602 136.871C239.817 144.107 261.221 139.881 279.943 133.162C288.331 130.152 298.265 125.918 307.712 128.082C336.43 134.652 333.443 169.697 328.699 191.892C322.294 221.872 311.883 253.749 290.785 276.752C240.272 331.859 149.367 298.077 103.801 254.102C100.454 250.864 97.247 247.493 94.2286 243.91C86.3871 234.768 79.7501 224.658 74.4796 213.828C59.8032 183.291 57.7804 146.177 70.5596 114.621C74.397 105.053 79.6858 96.1335 86.2396 88.1765Z" fill="#586AAF"/>
<path opacity="0.7" d="M86.2396 88.1765C96.7923 75.5697 111.053 65.856 128.05 66.0206C157.058 66.3813 172.738 92.0572 189.375 111.861C197.999 122.131 207.791 132.041 220.602 136.871C239.817 144.107 261.221 139.881 279.943 133.162C288.331 130.152 298.265 125.918 307.712 128.082C336.43 134.652 333.443 169.697 328.699 191.892C322.294 221.872 311.883 253.749 290.785 276.752C240.272 331.859 149.367 298.077 103.801 254.102C100.454 250.864 97.247 247.493 94.2286 243.91C86.3871 234.768 79.7501 224.658 74.4796 213.828C59.8032 183.291 57.7804 146.177 70.5596 114.621C74.397 105.053 79.6858 96.1335 86.2396 88.1765Z" fill="white"/>
<path d="M42.375 347.649H349.625" stroke="#263238" stroke-linecap="round" stroke-linejoin="round"/>
<path d="M228.904 188.787V73.4294H236.047" stroke="#263238" stroke-linecap="round" stroke-linejoin="round"/>
<path d="M228.904 202.515V199.458" stroke="#263238" stroke-linecap="round" stroke-linejoin="round"/>
<path d="M254.416 73.4294H328.119V213.272H228.904" stroke="#263238" stroke-linecap="round" stroke-linejoin="round"/>
<path d="M245.385 73.4294H251.861" stroke="#263238" stroke-linecap="round" stroke-linejoin="round"/>
<path d="M324.388 77.1536H232.637V209.548H324.388V77.1536Z" stroke="#263238" stroke-linecap="round" stroke-linejoin="round"/>
<path d="M320.122 84.2407V139.223H236.9V135.632" stroke="#263238" stroke-linecap="round" stroke-linejoin="round"/>
<path d="M236.9 127.228V81.0579H320.122" stroke="#263238" stroke-linecap="round" stroke-linejoin="round"/>
<path d="M236.9 132.88V129.391" stroke="#263238" stroke-linecap="round" stroke-linejoin="round"/>
<path d="M306.066 143.347H324.388" stroke="#263238" stroke-linecap="round" stroke-linejoin="round"/>
<path d="M299.551 143.347H302.146" stroke="#263238" stroke-linecap="round" stroke-linejoin="round"/>
<path d="M232.637 143.347H296.462" stroke="#263238" stroke-linecap="round" stroke-linejoin="round"/>
<path d="M273.898 139.223V137.325H281.574V138.4H278.516V139.223" stroke="#263238" stroke-linecap="round" stroke-linejoin="round"/>
<path d="M232.793 192.864C232.793 192.864 234.071 193.828 234.965 199.661C234.965 199.661 236.533 190.347 238.367 190.206C240.202 190.065 239.857 196.259 239.857 196.259C239.857 196.259 240.17 193.209 241.629 193.35C243.087 193.491 241.629 199.622 241.629 199.622C241.629 199.622 243.385 194.808 245.047 194.918C246.709 195.028 243.949 203.636 243.949 203.636C243.949 203.636 248.214 200.547 249.939 202.068C251.664 203.589 248.983 207.384 248.983 207.384C248.983 207.384 255.098 206.059 256.039 209.649" stroke="#263238" stroke-linecap="round" stroke-linejoin="round"/>
<path d="M256.047 206.192C256.047 206.192 258.712 204.444 260.814 205.259C260.814 205.259 259.481 203.228 260.814 201.99C262.146 200.751 263.856 205.259 263.856 205.259C263.856 205.259 264.052 197.693 266.717 198.078C269.383 198.462 266.717 205.259 266.717 205.259C266.717 205.259 271.476 201.041 272.621 202.507C273.765 203.973 271.837 206.192 271.837 206.192C272.697 205.948 273.606 205.931 274.475 206.144C275.343 206.357 276.142 206.792 276.792 207.407C276.792 207.407 279.982 204.154 283.526 203.683C283.526 203.683 281.174 196.839 282.311 195.459C283.448 194.079 285.533 201.433 285.533 201.433C285.533 201.433 286.443 196.651 289.453 196.274C289.453 196.274 286.968 194.926 287.705 192.88C288.442 190.833 291.868 193.366 291.868 193.366C291.868 193.366 290.457 189.767 292.691 188.779C294.925 187.791 295.827 191.79 295.827 191.79C295.827 191.79 296.454 187.603 299.073 187.87C301.691 188.136 300.845 192.919 300.845 192.919C300.845 192.919 303.314 189.093 304.639 189.477C307.281 190.261 306.482 196.314 306.482 196.314C306.482 196.314 310.166 193.75 311.123 194.934C312.079 196.118 307.281 199.489 307.281 199.489C307.281 199.489 310.943 199.889 313.224 202.029" stroke="#263238" stroke-linecap="round" stroke-linejoin="round"/>
<path d="M324.388 194.275C324.388 194.275 323.965 190.434 320.123 190.23C316.281 190.026 321.181 198.658 321.181 198.658C321.181 198.658 318.006 196.031 316.869 196.839C315.733 197.647 320.123 202.1 320.123 202.1C320.123 202.1 318.014 200.147 315.795 200.751C313.577 201.355 317.058 207.541 317.058 207.541C313.775 206.883 310.368 207.284 307.328 208.685" stroke="#263238" stroke-linecap="round" stroke-linejoin="round"/>
<path d="M193.404 313.325V347.445" stroke="#263238" stroke-linecap="round" stroke-linejoin="round"/>
<path d="M193.404 302.161V309.468" stroke="#263238" stroke-linecap="round" stroke-linejoin="round"/>
<path d="M49.7754 347.649V284.067H193.404V298.022" stroke="#263238" stroke-linecap="round" stroke-linejoin="round"/>
<path d="M70.7019 291.021H58.2363V341.816" stroke="#263238" stroke-linecap="round" stroke-linejoin="round"/>
<path d="M184.946 347.445V291.021H77.9375" stroke="#263238" stroke-linecap="round" stroke-linejoin="round"/>
<path d="M178.971 277.481H175.012" stroke="#263238" stroke-linecap="round" stroke-linejoin="round"/>
<path d="M169.328 277.481H46.209V284.02H196.972V277.481H181.496" stroke="#263238" stroke-linecap="round" stroke-linejoin="round"/>
<path d="M54.6992 235.584C54.6992 235.584 66.4592 236.517 66.9923 245.219C66.9923 245.219 55.0363 250.723 54.6992 235.584Z" stroke="#263238" stroke-linecap="round" stroke-linejoin="round"/>
<path d="M78.0391 237.748C78.0391 237.748 84.6325 228.834 95.2871 233.404C95.2871 233.404 88.7799 244.177 78.0391 237.748Z" stroke="#263238" stroke-linecap="round" stroke-linejoin="round"/>
<path d="M94.386 209.602C94.386 209.602 96.2833 226.748 80.6738 222.029C80.6738 222.029 85.6287 209.422 94.386 209.602Z" stroke="#263238" stroke-linecap="round" stroke-linejoin="round"/>
<path d="M75.2167 200.053C75.2167 200.053 87.5647 206.717 78.486 216.815C78.486 216.815 69.8307 209.602 75.2167 200.053Z" stroke="#263238" stroke-linecap="round" stroke-linejoin="round"/>
<path d="M60.0312 215.38C60.0312 215.38 73.4533 214.032 73.4533 226.45C73.4533 226.45 60.0312 226.984 60.0312 215.38Z" stroke="#263238" stroke-linecap="round" stroke-linejoin="round"/>
<path d="M70.0895 252.236C69.8935 248.065 69.8935 242.703 72.4415 237.035C78.3137 223.957 80.2815 212.942 77.2318 205.181" stroke="#263238" stroke-linecap="round" stroke-linejoin="round"/>
<path d="M64.4375 218.736C64.4375 218.736 72.4813 221.935 75.2175 230.221" stroke="#263238" stroke-linecap="round" stroke-linejoin="round"/>
<path d="M90.1592 216.462C90.1592 216.462 85.5101 222.797 77.6152 222.115" stroke="#263238" stroke-linecap="round" stroke-linejoin="round"/>
<path d="M90.1609 235.2C90.1609 235.2 77.2798 238.908 72.1289 237.693" stroke="#263238" stroke-linecap="round" stroke-linejoin="round"/>
<path d="M58.541 239.504C58.541 239.504 64.3034 245.823 70.0893 245.721" stroke="#263238" stroke-linecap="round" stroke-linejoin="round"/>
<path d="M85.4013 252.236H57.4204C57.2395 252.236 57.066 252.308 56.9381 252.436C56.8101 252.564 56.7383 252.738 56.7383 252.918V255.043C56.7383 255.132 56.756 255.221 56.7903 255.303C56.8247 255.385 56.8751 255.46 56.9385 255.523C57.002 255.585 57.0772 255.635 57.1599 255.668C57.2426 255.702 57.3312 255.718 57.4204 255.717H58.2044L60.6975 277.481H82.085L84.5781 255.717H85.4013C85.4902 255.718 85.5783 255.702 85.6606 255.668C85.7429 255.635 85.8176 255.585 85.8804 255.522C85.9432 255.459 85.9929 255.385 86.0264 255.302C86.0599 255.22 86.0766 255.132 86.0756 255.043V252.918C86.0766 252.829 86.0599 252.741 86.0265 252.658C85.9931 252.575 85.9436 252.5 85.8809 252.437C85.8182 252.373 85.7435 252.323 85.6612 252.288C85.5788 252.254 85.4905 252.236 85.4013 252.236Z" stroke="#263238" stroke-miterlimit="10"/>
<path d="M60.0312 255.717H76.3071" stroke="#263238" stroke-linecap="round" stroke-linejoin="round"/>
<path d="M79.373 255.717H81.8191" stroke="#263238" stroke-linecap="round" stroke-linejoin="round"/>
<path d="M257.71 165.495L254.574 182.539L229 198.078L232.536 204.569C232.536 204.569 262.1 195.553 262.822 193.444C263.543 191.335 270.356 168.999 270.356 168.999L257.71 165.495Z" fill="#263238"/>
<path d="M268.914 136.675L267.204 157.341L266.303 168.184C261.371 170.583 256.55 166.976 256.252 166.741C257.593 162.806 259.153 140.595 268.914 136.675Z" fill="#999999" stroke="#263238" stroke-linecap="round" stroke-linejoin="round"/>
<path d="M267.171 157.341L266.27 168.184C261.338 170.583 256.517 166.976 256.219 166.741C256.43 166.835 259.025 167.933 260.711 166.741C260.121 166.105 259.596 165.411 259.143 164.671C259.041 164.264 260.711 164.154 260.711 164.154C260.711 164.154 259.613 155.365 262.538 151.61C263.682 150.183 265.47 153.162 267.171 157.341Z" fill="#263238"/>
<path d="M286.622 328.057L287.406 330.362C286.218 332.323 284.887 334.194 283.424 335.96C283.424 335.96 282.64 335.709 281.354 336.846C280.562 337.635 280.073 338.679 279.974 339.793C279.974 339.793 273.984 346.975 266.387 347.077C258.79 347.179 261.08 343.353 261.08 343.353L286.622 328.057Z" fill="#586AAF" stroke="#263238" stroke-linecap="round" stroke-linejoin="round"/>
<path d="M279.481 309.782C279.481 309.782 269.289 306.027 267.297 313.537C267.297 313.537 269.116 321.808 268.026 326.332C266.937 330.856 261.449 339.495 261.111 341.134C260.445 344.348 260.947 344.568 260.947 344.568C260.947 344.568 264.937 346.873 270.3 344.403C275.663 341.934 284.945 331.303 286.395 329.115C287.846 326.928 281.848 318.304 281.848 318.304L279.481 309.782Z" fill="white"/>
<mask id="mask0_357_1030" style="mask-type:luminance" maskUnits="userSpaceOnUse" x="260" y="308" width="27" height="38">
<path d="M279.481 309.782C279.481 309.782 269.289 306.027 267.297 313.537C267.297 313.537 269.116 321.808 268.026 326.332C266.937 330.856 261.449 339.495 261.111 341.134C260.445 344.348 260.947 344.568 260.947 344.568C260.947 344.568 264.937 346.873 270.3 344.403C275.663 341.934 284.945 331.303 286.395 329.115C287.846 326.928 281.848 318.304 281.848 318.304L279.481 309.782Z" fill="white"/>
</mask>
<g mask="url(#mask0_357_1030)">
<path opacity="0.4" d="M279.481 309.782C279.481 309.782 269.289 306.027 267.297 313.537C267.297 313.537 269.116 321.808 268.026 326.332C266.937 330.856 261.449 339.495 261.111 341.134C260.445 344.348 260.947 344.568 260.947 344.568C260.947 344.568 264.937 346.873 270.3 344.403C275.663 341.934 284.945 331.303 286.395 329.115C287.846 326.928 281.848 318.304 281.848 318.304L279.481 309.782Z" fill="#586AAF"/>
</g>
<path d="M279.481 309.782C279.481 309.782 269.289 306.027 267.297 313.537C267.297 313.537 269.116 321.808 268.026 326.332C266.937 330.856 261.449 339.495 261.111 341.134C260.445 344.348 260.947 344.568 260.947 344.568C260.947 344.568 264.937 346.873 270.3 344.403C275.663 341.934 284.945 331.303 286.395 329.115C287.846 326.928 281.848 318.304 281.848 318.304L279.481 309.782Z" stroke="#263238" stroke-linecap="round" stroke-linejoin="round"/>
<path d="M274.267 320.405C275.154 325.465 274.253 330.676 271.719 335.144" stroke="#263238" stroke-linecap="round" stroke-linejoin="round"/>
<path d="M271.719 337.12C271.34 338.075 270.751 338.932 269.997 339.629C269.242 340.327 268.341 340.846 267.36 341.15C265.305 341.7 263.142 341.7 261.088 341.15L263.534 336.195C266.131 337.229 268.957 337.549 271.719 337.12Z" fill="#586AAF" stroke="#263238" stroke-linecap="round" stroke-linejoin="round"/>
<path d="M273.161 334.117C273.161 334.117 267.83 334.439 265.047 333.333" stroke="#263238" stroke-linecap="round" stroke-linejoin="round"/>
<path d="M274.15 331.177C274.15 331.177 269.164 331.961 266.381 330.393" stroke="#263238" stroke-linecap="round" stroke-linejoin="round"/>
<path d="M274.996 327.908C274.996 327.908 270.629 328.543 267.775 327.195" stroke="#263238" stroke-linecap="round" stroke-linejoin="round"/>
<path d="M275.482 324.208C275.482 324.208 270.621 325.728 268.324 324.208" stroke="#263238" stroke-linecap="round" stroke-linejoin="round"/>
<path d="M276.212 315.066L277.059 320.405C277.059 320.405 270.63 324.639 266.381 319.347V313.772C266.381 313.772 267.98 317.52 276.212 315.066Z" fill="#586AAF" stroke="#263238" stroke-linecap="round" stroke-linejoin="round"/>
<path d="M270.63 195.216C264.115 215.859 243.895 248.967 245.942 257.442C247.063 262.068 253.735 288.277 258.956 299.778C260.94 304.176 265.228 307.116 265.228 307.116L268.325 313.757C275.875 317.042 278.58 310.362 278.58 310.362L277.059 302.836C281.104 295.482 279.411 295.482 274.15 257.364C273.531 252.871 283.95 238.987 283.95 238.987L289.297 273.922L290.167 302.538L292.942 311.381C292.942 311.381 293.632 319.684 293.57 320.186H305.98L307.329 311.06C307.329 311.06 313.091 305.627 313.091 299.355C313.091 293.083 311.852 261.135 313.091 251.829C314.33 242.523 310.19 199.136 310.19 199.136L270.63 195.216Z" fill="#263238"/>
<path d="M186.261 176.823L203.509 178.375C203.9 178.41 204.261 178.599 204.512 178.901C204.764 179.202 204.885 179.591 204.85 179.982L203.743 192.291L183.547 190.473L184.654 178.164C184.69 177.773 184.879 177.412 185.18 177.161C185.481 176.909 185.87 176.788 186.261 176.823Z" fill="#586AAF"/>
<mask id="mask1_357_1030" style="mask-type:luminance" maskUnits="userSpaceOnUse" x="183" y="176" width="22" height="17">
<path d="M186.259 176.823L203.507 178.375C203.898 178.41 204.259 178.599 204.51 178.901C204.762 179.202 204.884 179.591 204.848 179.982L203.741 192.291L183.545 190.473L184.653 178.164C184.688 177.773 184.877 177.412 185.178 177.161C185.479 176.909 185.868 176.788 186.259 176.823Z" fill="white"/>
</mask>
<g mask="url(#mask1_357_1030)">
<path opacity="0.3" d="M186.259 176.823L203.507 178.375C203.898 178.41 204.259 178.599 204.51 178.901C204.762 179.202 204.884 179.591 204.848 179.982L203.741 192.291L183.545 190.473L184.653 178.164C184.688 177.773 184.877 177.412 185.178 177.161C185.479 176.909 185.868 176.788 186.259 176.823Z" fill="black" fill-opacity="0.7"/>
<path opacity="0.3" d="M203.778 178.162L198.834 177.737L197.984 187.626L202.929 188.051L203.778 178.162Z" fill="white" fill-opacity="0.7"/>
</g>
<path d="M186.261 176.823L203.509 178.375C203.9 178.41 204.261 178.599 204.512 178.901C204.764 179.202 204.885 179.591 204.85 179.982L203.743 192.291L183.547 190.473L184.654 178.164C184.69 177.773 184.879 177.412 185.18 177.161C185.481 176.909 185.87 176.788 186.261 176.823Z" stroke="#263238" stroke-width="1.00404" stroke-linecap="round" stroke-linejoin="round"/>
<path d="M216.031 177.912L233.216 179.389C233.605 179.422 233.965 179.609 234.217 179.908C234.469 180.207 234.592 180.594 234.558 180.983L233.505 193.247L213.383 191.518L214.436 179.255C214.47 178.865 214.657 178.505 214.956 178.253C215.255 178.001 215.642 177.879 216.031 177.912Z" fill="#586AAF"/>
<mask id="mask2_357_1030" style="mask-type:luminance" maskUnits="userSpaceOnUse" x="213" y="177" width="22" height="17">
<path d="M216.031 177.912L233.216 179.389C233.605 179.422 233.965 179.609 234.217 179.908C234.469 180.207 234.592 180.594 234.558 180.983L233.505 193.247L213.383 191.518L214.436 179.255C214.47 178.865 214.657 178.505 214.956 178.253C215.255 178.001 215.642 177.879 216.031 177.912Z" fill="white"/>
</mask>
<g mask="url(#mask2_357_1030)">
<path opacity="0.3" d="M216.031 177.912L233.216 179.389C233.605 179.422 233.965 179.609 234.217 179.908C234.469 180.207 234.592 180.594 234.558 180.983L233.505 193.247L213.383 191.518L214.436 179.255C214.47 178.865 214.657 178.505 214.956 178.253C215.255 178.001 215.642 177.879 216.031 177.912Z" fill="black" fill-opacity="0.7"/>
<path opacity="0.3" d="M233.123 180.687L230.139 180.431L229.289 190.32L232.273 190.576L233.123 180.687Z" fill="white" fill-opacity="0.7"/>
</g>
<path d="M216.031 177.912L233.216 179.389C233.605 179.422 233.965 179.609 234.217 179.908C234.469 180.207 234.592 180.594 234.558 180.983L233.505 193.247L213.383 191.518L214.436 179.255C214.47 178.865 214.657 178.505 214.956 178.253C215.255 178.001 215.642 177.879 216.031 177.912Z" stroke="#263238" stroke-linecap="round" stroke-linejoin="round"/>
<path d="M209.789 177.372L226.974 178.848C227.363 178.881 227.723 179.068 227.975 179.367C228.227 179.666 228.349 180.053 228.316 180.443L227.262 192.706L207.141 190.978L208.194 178.714C208.228 178.325 208.414 177.964 208.713 177.713C209.013 177.461 209.399 177.338 209.789 177.372Z" fill="#586AAF" stroke="#263238" stroke-linecap="round" stroke-linejoin="round"/>
<path d="M239.465 179.926L256.649 181.403C257.039 181.436 257.399 181.623 257.651 181.922C257.902 182.221 258.025 182.608 257.992 182.997L256.939 195.253L236.817 193.525L237.871 181.261C237.906 180.873 238.094 180.515 238.392 180.265C238.691 180.015 239.076 179.893 239.465 179.926Z" fill="#586AAF" stroke="#263238" stroke-linecap="round" stroke-linejoin="round"/>
<path opacity="0.3" d="M227.214 180.175L222.27 179.751L221.42 189.64L226.365 190.065L227.214 180.175Z" fill="white" fill-opacity="0.7"/>
<path opacity="0.3" d="M256.564 182.694L251.619 182.27L250.77 192.159L255.714 192.583L256.564 182.694Z" fill="white" fill-opacity="0.7"/>
<path d="M265.926 193.17L261.073 249.563L170.215 241.723L175.068 185.338C175.107 184.871 175.238 184.417 175.454 184.001C175.669 183.585 175.964 183.216 176.323 182.914C176.681 182.613 177.095 182.385 177.542 182.244C177.989 182.103 178.459 182.051 178.925 182.092L262.672 189.289C263.141 189.327 263.599 189.459 264.017 189.675C264.435 189.892 264.807 190.189 265.109 190.55C265.412 190.911 265.64 191.328 265.78 191.778C265.92 192.228 265.97 192.701 265.926 193.17Z" fill="#586AAF"/>
<mask id="mask3_357_1030" style="mask-type:luminance" maskUnits="userSpaceOnUse" x="170" y="182" width="96" height="68">
<path d="M265.926 193.17L261.073 249.563L170.215 241.723L175.068 185.338C175.107 184.871 175.238 184.417 175.454 184.001C175.669 183.585 175.964 183.216 176.323 182.914C176.681 182.613 177.095 182.385 177.542 182.244C177.989 182.103 178.459 182.051 178.925 182.092L262.672 189.289C263.141 189.327 263.599 189.459 264.017 189.675C264.435 189.892 264.807 190.189 265.109 190.55C265.412 190.911 265.64 191.328 265.78 191.778C265.92 192.228 265.97 192.701 265.926 193.17Z" fill="white"/>
</mask>
<g mask="url(#mask3_357_1030)">
<path opacity="0.3" d="M265.926 193.17L261.073 249.563L170.215 241.723L175.068 185.338C175.107 184.871 175.238 184.417 175.454 184.001C175.669 183.585 175.964 183.216 176.323 182.914C176.681 182.613 177.095 182.385 177.542 182.244C177.989 182.103 178.459 182.051 178.925 182.092L262.672 189.289C263.141 189.327 263.599 189.459 264.017 189.675C264.435 189.892 264.807 190.189 265.109 190.55C265.412 190.911 265.64 191.328 265.78 191.778C265.92 192.228 265.97 192.701 265.926 193.17Z" fill="black" fill-opacity="0.7"/>
</g>
<path d="M265.926 193.17L261.073 249.563L170.215 241.723L175.068 185.338C175.107 184.871 175.238 184.417 175.454 184.001C175.669 183.585 175.964 183.216 176.323 182.914C176.681 182.613 177.095 182.385 177.542 182.244C177.989 182.103 178.459 182.051 178.925 182.092L262.672 189.289C263.141 189.327 263.599 189.459 264.017 189.675C264.435 189.892 264.807 190.189 265.109 190.55C265.412 190.911 265.64 191.328 265.78 191.778C265.92 192.228 265.97 192.701 265.926 193.17Z" stroke="#263238" stroke-linecap="round" stroke-linejoin="round"/>
<path d="M265.925 193.17L261.072 249.563L193.648 243.761L198.509 187.376C198.549 186.909 198.68 186.455 198.895 186.039C199.111 185.623 199.406 185.254 199.764 184.953C200.123 184.651 200.537 184.423 200.983 184.282C201.43 184.141 201.9 184.089 202.367 184.13L262.68 189.313C263.146 189.352 263.601 189.483 264.016 189.699C264.432 189.914 264.802 190.209 265.103 190.568C265.405 190.926 265.632 191.34 265.774 191.787C265.915 192.233 265.966 192.703 265.925 193.17Z" fill="#586AAF" stroke="#263238" stroke-linecap="round" stroke-linejoin="round"/>
<path opacity="0.3" d="M261.191 194.785L203.559 189.83C203.175 189.796 202.819 189.613 202.569 189.32C202.318 189.026 202.192 188.647 202.218 188.262C202.252 187.878 202.435 187.522 202.729 187.272C203.022 187.021 203.401 186.895 203.786 186.921L261.418 191.876C261.802 191.91 262.158 192.093 262.408 192.387C262.659 192.68 262.785 193.059 262.759 193.444C262.725 193.828 262.541 194.184 262.248 194.435C261.955 194.685 261.576 194.811 261.191 194.785Z" fill="white" fill-opacity="0.7"/>
<path d="M306.387 320.507C306.387 320.507 302.044 317.41 293.059 318.03C293.059 318.03 292.401 328.81 291.178 331.946C289.955 335.082 283.51 340.515 282.311 341.448C281.111 342.381 281.111 345.634 281.111 345.634H308.41C308.06 340.968 307.334 336.338 306.239 331.789L306.387 320.507Z" fill="white"/>
<mask id="mask4_357_1030" style="mask-type:luminance" maskUnits="userSpaceOnUse" x="281" y="317" width="28" height="29">
<path d="M306.387 320.507C306.387 320.507 302.044 317.41 293.059 318.03C293.059 318.03 292.401 328.81 291.178 331.946C289.955 335.082 283.51 340.515 282.311 341.448C281.111 342.381 281.111 345.634 281.111 345.634H308.41C308.06 340.968 307.334 336.338 306.239 331.789L306.387 320.507Z" fill="white"/>
</mask>
<g mask="url(#mask4_357_1030)">
<path opacity="0.4" d="M306.387 320.507C306.387 320.507 302.044 317.41 293.059 318.03C293.059 318.03 292.401 328.81 291.178 331.946C289.955 335.082 283.51 340.515 282.311 341.448C281.111 342.381 281.111 345.634 281.111 345.634H308.41C308.06 340.968 307.334 336.338 306.239 331.789L306.387 320.507Z" fill="#586AAF"/>
</g>
<path d="M306.387 320.507C306.387 320.507 302.044 317.41 293.059 318.03C293.059 318.03 292.401 328.81 291.178 331.946C289.955 335.082 283.51 340.515 282.311 341.448C281.111 342.381 281.111 345.634 281.111 345.634H308.41C308.06 340.968 307.334 336.338 306.239 331.789L306.387 320.507Z" stroke="#263238" stroke-linecap="round" stroke-linejoin="round"/>
<path d="M300.751 321.903C300.751 321.903 300.108 331.828 298.563 334.447C297.739 335.885 296.72 337.204 295.537 338.367" stroke="#263238" stroke-linecap="round" stroke-linejoin="round"/>
<path d="M294.784 339.739C294.784 339.739 293.412 341.448 291.891 341.675C290.37 341.902 282.334 341.448 282.334 341.448L285.611 338.61C285.611 338.61 292.275 337.489 294.784 339.739Z" fill="#586AAF" stroke="#263238" stroke-linecap="round" stroke-linejoin="round"/>
<path d="M297.623 337.41C297.623 337.41 291.806 334.07 287.658 336.626" stroke="#263238" stroke-linecap="round" stroke-linejoin="round"/>
<path d="M299.025 335.144C299.025 335.144 294.964 331.969 290.174 333.71" stroke="#263238" stroke-linecap="round" stroke-linejoin="round"/>
<path d="M300.75 331.687C300.75 331.687 296.376 328.284 291.766 330.448" stroke="#263238" stroke-linecap="round" stroke-linejoin="round"/>
<path d="M301.347 327.367C301.347 327.367 296.039 324.513 292.182 326.677" stroke="#263238" stroke-linecap="round" stroke-linejoin="round"/>
<path d="M308.403 345.634V347.649H305.267C305.267 347.649 302.578 346.081 300.022 347.649H285.299C283.743 347.644 282.207 347.299 280.799 346.638L281.105 345.634H308.403Z" fill="#586AAF" stroke="#263238" stroke-linecap="round" stroke-linejoin="round"/>
<path d="M304.49 319.872L303.793 324.27C303.793 324.27 295.6 321.613 291.076 323.337V317.928C291.076 317.928 299.489 314.98 304.49 319.872Z" fill="#586AAF" stroke="#263238" stroke-linecap="round" stroke-linejoin="round"/>
<path d="M313.35 210.292C313.35 210.292 295.937 213.703 278.854 208.168C274.964 206.928 271.243 205.211 267.776 203.056C267.776 203.056 267.823 201.958 267.854 200.163C267.995 193.154 267.956 175.522 264.264 171.155C261.912 168.403 260.069 151.39 264.609 142.79L278.493 131.626C297.717 135.381 301.778 140.469 304.953 151.445C305.541 153.452 306.09 155.655 306.702 158.086C307.368 160.736 307.995 163.974 308.591 167.494C311.476 185.024 313.35 210.292 313.35 210.292Z" fill="#999999"/>
<mask id="mask5_357_1030" style="mask-type:luminance" maskUnits="userSpaceOnUse" x="261" y="131" width="53" height="81">
<path d="M313.35 210.292C313.35 210.292 295.937 213.703 278.854 208.168C274.964 206.928 271.243 205.211 267.776 203.056C267.776 203.056 267.823 201.958 267.854 200.163C267.995 193.154 267.956 175.522 264.264 171.155C261.912 168.403 260.069 151.39 264.609 142.79L278.493 131.626C297.717 135.381 301.778 140.469 304.953 151.445C305.541 153.452 306.09 155.655 306.702 158.086C307.368 160.736 307.995 163.974 308.591 167.494C311.476 185.024 313.35 210.292 313.35 210.292Z" fill="white"/>
</mask>
<g mask="url(#mask5_357_1030)">
<path opacity="0.2" d="M308.59 167.494L300.75 202.515C300.75 202.515 289.422 205.651 278.861 208.168C274.969 206.929 271.245 205.212 267.775 203.056C267.775 203.056 267.822 201.958 267.854 200.163C277.34 195.31 291.186 188.176 291.076 187.838C290.896 187.313 291.076 169.022 291.076 169.022C291.076 169.022 303.62 166.114 304.953 151.422C305.541 153.429 306.089 155.632 306.701 158.062C307.367 160.72 307.995 163.934 308.59 167.494Z" fill="black"/>
</g>
<path d="M313.35 210.292C313.35 210.292 295.937 213.703 278.854 208.168C274.964 206.928 271.243 205.211 267.776 203.056C267.776 203.056 267.823 201.958 267.854 200.163C267.995 193.154 267.956 175.522 264.264 171.155C261.912 168.403 260.069 151.39 264.609 142.79L278.493 131.626C297.717 135.381 301.778 140.469 304.953 151.445C305.541 153.452 306.09 155.655 306.702 158.086C307.368 160.736 307.995 163.974 308.591 167.494C311.476 185.024 313.35 210.292 313.35 210.292Z" stroke="#263238" stroke-linecap="round" stroke-linejoin="round"/>
<path d="M279.104 116.973C279.104 116.973 272.973 125.754 281.127 132.606C281.127 132.606 271.233 143.707 267.979 142.179C266.607 141.536 267.979 137.529 267.979 137.529L262.24 126.914L279.104 116.973Z" fill="white" stroke="#263238" stroke-linecap="round" stroke-linejoin="round"/>
<path d="M277.105 121.52C279.018 113.155 278.101 100.697 266.38 101.802C258.164 102.586 252.307 107.134 254.62 118.157C255.585 122.806 256.376 129.391 260.641 135.334C261.825 136.981 274.212 131.155 273.46 126.444" fill="white"/>
<path d="M277.105 121.52C279.018 113.155 278.101 100.697 266.38 101.802C258.164 102.586 252.307 107.134 254.62 118.157C255.585 122.806 256.376 129.391 260.641 135.334C261.825 136.981 274.212 131.155 273.46 126.444" stroke="#263238" stroke-linecap="round" stroke-linejoin="round"/>
<path d="M260.336 116.291C261.163 115.971 262.053 115.849 262.935 115.934C263.817 116.02 264.667 116.311 265.416 116.785" stroke="#263238" stroke-linecap="round" stroke-linejoin="round"/>
<path d="M254.439 117.318C254.59 116.997 254.851 116.741 255.175 116.597C255.499 116.453 255.864 116.43 256.203 116.534" stroke="#263238" stroke-linecap="round" stroke-linejoin="round"/>
<path d="M257.372 119.058C257.372 119.058 254.957 123.457 254.949 124.084C254.941 124.711 257.921 124.923 257.921 124.923" fill="white"/>
<path d="M257.372 119.058C257.372 119.058 254.957 123.457 254.949 124.084C254.941 124.711 257.921 124.923 257.921 124.923" stroke="#263238" stroke-linecap="round" stroke-linejoin="round"/>
<path d="M262.563 119.952C262.563 120.43 262.351 120.822 262.054 120.838C261.756 120.854 261.505 120.462 261.489 119.983C261.473 119.505 261.701 119.113 261.999 119.105C262.297 119.098 262.547 119.49 262.563 119.952Z" fill="#263238"/>
<path d="M259.152 128.121C259.152 128.121 263.786 127.251 264.64 125.62" stroke="#263238" stroke-linecap="round" stroke-linejoin="round"/>
<path d="M254.409 110.544L258.015 109.493C258.015 109.493 263.072 107.141 264.146 107.471C265.22 107.8 267.4 111.148 267.329 113.061C267.329 113.061 270.732 116.056 271.163 120.399L272.198 119.929C272.198 119.929 272.143 116.009 274.37 116.11C276.596 116.212 277.6 118.878 277.451 119.717C277.302 120.556 274.864 124.037 274.864 124.037C274.864 124.037 280.446 123.206 280.626 112.277C280.806 101.348 268.827 99.568 263.002 100.015C260.052 100.297 257.089 100.407 254.127 100.344L254.456 103.48L252.104 104.1L253.876 106.271L251.932 107.157L254.409 110.544Z" fill="#263238"/>
<path d="M274.604 229.712C274.604 229.712 288.794 233.467 292.636 244.036" stroke="white" stroke-linecap="round" stroke-linejoin="round"/>
<path d="M281.103 235.396C281.103 235.396 273.436 248.167 261.699 254.8" stroke="white" stroke-linecap="round" stroke-linejoin="round"/>
<path d="M270.324 307.218C270.324 307.218 274.683 306.238 275.875 304.545" stroke="white" stroke-linecap="round" stroke-linejoin="round"/>
<path d="M294.596 308.841C294.596 308.841 298.861 306.63 303.11 308.841" stroke="white" stroke-linecap="round" stroke-linejoin="round"/>
<path d="M308.403 249.383C308.403 249.383 301.245 267.924 297.623 269.641" stroke="white" stroke-linecap="round" stroke-linejoin="round"/>
<path d="M277.059 220.343C277.255 222.358 285.683 231.696 292.637 235.396" stroke="white" stroke-linecap="round" stroke-linejoin="round"/>
<path d="M284.248 212.464C285.263 214.964 285.474 217.718 284.852 220.343C284.175 222.609 284.175 225.024 284.852 227.29" stroke="white" stroke-linecap="round" stroke-linejoin="round"/>
<path d="M268.912 173.907C268.912 173.907 282.107 190.982 296.289 196.588" stroke="#263238" stroke-linecap="round" stroke-linejoin="round"/>
<path d="M282.57 146.302C282.57 146.302 282.523 157.913 290.896 163.15" stroke="#263238" stroke-linecap="round" stroke-linejoin="round"/>
<path d="M287.282 163.244C285.51 164.985 287.438 186.827 287.438 186.827C287.438 186.827 277.144 190.857 273.922 193.452C270.7 196.047 255.436 202.005 255.436 202.005C255.436 202.005 253.083 210.018 256.016 210.292C258.948 210.567 289.312 200.218 296.258 196.588C296.258 196.588 300.782 169.932 300.751 163.15" fill="white"/>
<path d="M287.282 163.244C285.51 164.985 287.438 186.827 287.438 186.827C287.438 186.827 277.144 190.857 273.922 193.452C270.7 196.047 255.436 202.005 255.436 202.005C255.436 202.005 253.083 210.018 256.016 210.292C258.948 210.567 289.312 200.218 296.258 196.588C296.258 196.588 300.782 169.932 300.751 163.15" stroke="#263238" stroke-linecap="round" stroke-linejoin="round"/>
<path d="M256.644 201.527C255.233 201.261 252.724 200.336 251.407 200.641C250.09 200.947 247.683 202.397 245.205 202.993C242.728 203.589 243.755 204.561 245.205 204.851C246.267 205.028 247.35 205.028 248.412 204.851L246.397 206.819C245.243 207.444 244.052 207.996 242.83 208.473C242.101 208.473 239.521 209.171 239.694 210.269C239.866 211.366 241.348 211.241 243.002 211.304C243.002 211.304 240.368 211.829 240.65 213.326C240.823 214.353 243.786 213.428 245.299 213.428C245.299 213.428 244.061 214.777 244.986 215.192C245.911 215.608 247.965 214.573 247.965 214.573C247.965 214.573 247.887 215.686 248.812 215.796C249.737 215.906 252.065 215.012 253.649 214.056C255.209 213.05 256.701 211.945 258.118 210.747C258.717 210.199 259.403 209.754 260.148 209.43" fill="white"/>
<path d="M256.644 201.527C255.233 201.261 252.724 200.336 251.407 200.641C250.09 200.947 247.683 202.397 245.205 202.993C242.728 203.589 243.755 204.561 245.205 204.851C246.267 205.028 247.35 205.028 248.412 204.851L246.397 206.819C245.243 207.444 244.052 207.996 242.83 208.473C242.101 208.473 239.521 209.171 239.694 210.269C239.866 211.366 241.348 211.241 243.002 211.304C243.002 211.304 240.368 211.829 240.65 213.326C240.823 214.353 243.786 213.428 245.299 213.428C245.299 213.428 244.061 214.777 244.986 215.192C245.911 215.608 247.965 214.573 247.965 214.573C247.965 214.573 247.887 215.686 248.812 215.796C249.737 215.906 252.065 215.012 253.649 214.056C255.209 213.05 256.701 211.945 258.118 210.747C258.717 210.199 259.403 209.754 260.148 209.43" stroke="#263238" stroke-linecap="round" stroke-linejoin="round"/>
<path d="M243.041 211.335C243.769 211.296 244.495 211.212 245.213 211.084C245.832 210.927 246.451 210.724 246.451 210.724" stroke="#263238" stroke-linecap="round" stroke-linejoin="round"/>
<path d="M245.307 213.46C246.254 213.327 247.167 213.013 247.996 212.535" stroke="#263238" stroke-linecap="round" stroke-linejoin="round"/>
<path d="M247.973 214.604C248.674 214.516 249.344 214.266 249.933 213.875" stroke="#263238" stroke-linecap="round" stroke-linejoin="round"/>
<path d="M246.647 207.415C246.647 207.415 246.083 208.709 246.647 209.43C247.212 210.151 247.894 210.214 247.996 210.998C248.098 211.782 249.446 211.782 249.932 212.292C250.418 212.801 250.787 213.781 252.339 213.86" stroke="#263238" stroke-linecap="round" stroke-linejoin="round"/>
<path d="M286.623 140.595C281.284 152.676 286.623 169.438 286.623 169.438C286.623 169.438 299.543 173.828 300.735 171.939C301.927 170.05 304.106 160.783 304.475 156.502" fill="#999999"/>
<path d="M286.623 140.595C281.284 152.676 286.623 169.438 286.623 169.438C286.623 169.438 299.543 173.828 300.735 171.939C301.927 170.05 304.106 160.783 304.475 156.502" stroke="#263238" stroke-linecap="round" stroke-linejoin="round"/>
<path d="M300.751 157.843C300.751 157.843 295.263 165.393 290.896 165.495" stroke="#263238" stroke-linecap="round" stroke-linejoin="round"/>
<path d="M104.594 347.649C104.594 347.649 103.254 342.53 104.822 340.632C107.628 337.23 104.477 334.36 107.299 333.192L108.483 334.564C108.71 333.176 108.052 328.935 113.289 328.386C119.624 327.72 119.741 332.306 120.086 333.874L119.976 331.75C122.681 331.75 121.278 334.447 125.37 338.853C126.443 340.042 127.26 341.44 127.77 342.959C128.28 344.477 128.472 346.084 128.334 347.681L104.594 347.649Z" fill="#263238"/>
<path d="M152.881 347.649C150.333 346.512 152.669 336.901 152.669 336.901C152.669 336.901 149.243 334.603 152.669 332.197C153.994 333.319 155.601 334.059 157.316 334.335C159.03 334.612 160.788 334.414 162.399 333.765C162.399 333.765 163.065 327.336 167.103 328.159C167.103 328.159 168.138 332.236 170.497 334.564C176.887 340.836 185.142 341.62 186.522 344.631C186.938 345.54 186.436 347.618 186.436 347.618L152.881 347.649Z" fill="#263238"/>
<path d="M141.99 194.362L145.126 201.01C145.126 201.01 158.094 227.807 166.036 258.493C166.224 259.222 170.332 273.757 167.039 309.955L168.921 316.305L166.867 326.795C166.867 326.795 169.956 331.256 169.846 332.714C169.846 332.714 162.225 334.133 159.654 335.497C157.678 336.564 151.743 342.42 151.743 342.42C150.058 342.075 149.909 335.27 149.909 335.27C149.909 335.27 146.389 274.847 145.377 272.244C144.366 269.641 138.188 258.414 128.545 232.723C128.545 232.723 128.325 268.606 125.754 277.685C123.457 285.76 126.177 308.363 126.177 308.363L124.609 333.522C124.609 333.522 130.034 339.159 125.636 340.672C125.636 340.672 122.696 335.019 114.323 333.733C110.066 333.075 104.766 340.633 104.766 340.633C102.9 340.037 105.55 330.542 105.55 330.542C99.6151 285.76 103.982 293.867 102.806 271.978C102.022 257.928 98.0628 197.827 102.735 192.943L141.99 194.362Z" fill="#BFBFBF"/>
<mask id="mask6_357_1030" style="mask-type:luminance" maskUnits="userSpaceOnUse" x="100" y="192" width="70" height="151">
<path d="M141.99 194.362L145.126 201.01C145.126 201.01 158.094 227.807 166.036 258.493C166.224 259.222 170.332 273.757 167.039 309.955L168.921 316.305L166.867 326.795C166.867 326.795 169.956 331.256 169.846 332.714C169.846 332.714 162.225 334.133 159.654 335.497C157.678 336.564 151.743 342.42 151.743 342.42C150.058 342.075 149.909 335.27 149.909 335.27C149.909 335.27 146.389 274.847 145.377 272.244C144.366 269.641 138.188 258.414 128.545 232.723C128.545 232.723 128.325 268.606 125.754 277.685C123.457 285.76 126.177 308.363 126.177 308.363L124.609 333.522C124.609 333.522 130.034 339.159 125.636 340.672C125.636 340.672 122.696 335.019 114.323 333.733C110.066 333.075 104.766 340.633 104.766 340.633C102.9 340.037 105.55 330.542 105.55 330.542C99.6151 285.76 103.982 293.867 102.806 271.978C102.022 257.928 98.0628 197.827 102.735 192.943L141.99 194.362Z" fill="white"/>
</mask>
<g mask="url(#mask6_357_1030)">
<path opacity="0.2" d="M100.557 215.059C121.521 216.706 139.67 209.846 147.55 206.263C146.052 202.907 145.135 201.01 145.135 201.01L141.999 194.37L102.799 192.943C101.137 194.707 100.549 203.668 100.557 215.059Z" fill="black"/>
<path opacity="0.2" d="M128.758 233.185C138.299 258.548 144.438 269.649 145.426 272.236C145.998 273.742 147.401 294.259 148.499 311.476C149.753 295.796 151.047 279.277 151.157 276.039C151.392 269.579 146.727 260.727 146.029 258.438C145.332 256.149 146.907 253.671 146.907 253.671L138.519 243.087C138.801 239.497 134.356 223.824 134.356 223.824C131.713 226.325 129.361 231.649 128.758 233.185Z" fill="black"/>
</g>
<path d="M141.99 194.362L145.126 201.01C145.126 201.01 158.094 227.807 166.036 258.493C166.224 259.222 170.332 273.757 167.039 309.955L168.921 316.305L166.867 326.795C166.867 326.795 169.956 331.256 169.846 332.714C169.846 332.714 162.225 334.133 159.654 335.497C157.678 336.564 151.743 342.42 151.743 342.42C150.058 342.075 149.909 335.27 149.909 335.27C149.909 335.27 146.389 274.847 145.377 272.244C144.366 269.641 138.188 258.414 128.545 232.723C128.545 232.723 128.325 268.606 125.754 277.685C123.457 285.76 126.177 308.363 126.177 308.363L124.609 333.522C124.609 333.522 130.034 339.159 125.636 340.672C125.636 340.672 122.696 335.019 114.323 333.733C110.066 333.075 104.766 340.633 104.766 340.633C102.9 340.037 105.55 330.542 105.55 330.542C99.6151 285.76 103.982 293.867 102.806 271.978C102.022 257.928 98.0628 197.827 102.735 192.943L141.99 194.362Z" stroke="#263238" stroke-linecap="round" stroke-linejoin="round"/>
<path d="M128.576 232.723C128.576 232.723 133.366 223.479 137.451 220.9" stroke="#263238" stroke-linecap="round" stroke-linejoin="round"/>
<path d="M139.254 217.905C139.254 217.905 124.703 222.335 119.654 223.189" stroke="#263238" stroke-linecap="round" stroke-linejoin="round"/>
<path d="M131.807 203.056C132.434 215.169 136.707 217.231 132.591 219.873C132.591 219.873 132.708 225.541 130.654 229.132" stroke="#263238" stroke-linecap="round" stroke-linejoin="round"/>
<path d="M106.311 198.423C106.311 198.423 108.028 217.043 102.297 220.547" stroke="#263238" stroke-linecap="round" stroke-linejoin="round"/>
<path d="M102.297 204.428C102.297 204.428 101.866 216.823 102.297 226.811C102.297 226.811 103.732 269.03 105.167 274.33C106.601 279.63 102.956 287.658 103.269 310.566" stroke="#263238" stroke-linecap="round" stroke-linejoin="round"/>
<path d="M116.034 328.496C114.677 328.201 113.26 328.39 112.027 329.029" stroke="#263238" stroke-linecap="round" stroke-linejoin="round"/>
<path d="M124.656 333.522C122.858 331.772 120.774 330.343 118.494 329.296" stroke="#263238" stroke-linecap="round" stroke-linejoin="round"/>
<path d="M122.305 235.647C119.091 239.253 113.995 246.051 108.773 246.623" stroke="#263238" stroke-linecap="round" stroke-linejoin="round"/>
<path d="M127.22 229.783C126.232 231.029 125.213 232.252 124.178 233.468" stroke="#263238" stroke-linecap="round" stroke-linejoin="round"/>
<path d="M122.641 271.978C122.641 271.978 115.334 281.926 111.328 282.499" stroke="#263238" stroke-linecap="round" stroke-linejoin="round"/>
<path d="M131.234 230.927C131.234 230.927 144.249 267.172 148.772 270.747C148.772 270.747 149.282 297.403 149.431 306.709C149.58 316.015 151.72 328.386 151.72 328.386" stroke="#263238" stroke-linecap="round" stroke-linejoin="round"/>
<path d="M165.614 328.12C165.614 328.12 160.604 329.853 158.166 330.958C156.669 331.689 155.496 332.948 154.873 334.494" stroke="#263238" stroke-linecap="round" stroke-linejoin="round"/>
<path d="M152.935 257.677C145.95 253.295 136.738 247.815 133.021 240.092" stroke="#263238" stroke-linecap="round" stroke-linejoin="round"/>
<path d="M159.027 261.292C157.702 260.563 156.401 259.802 155.107 259.018" stroke="#263238" stroke-linecap="round" stroke-linejoin="round"/>
<path d="M137.013 207.956C133.258 207.901 129.173 207.407 125.936 205.283" stroke="#263238" stroke-linecap="round" stroke-linejoin="round"/>
<path d="M142.978 207.603C141.904 207.752 140.822 207.846 139.74 207.901" stroke="#263238" stroke-linecap="round" stroke-linejoin="round"/>
<path d="M149.949 124.374C147.079 120.031 132.458 118.925 123.073 118.925C113.689 118.925 102.297 117.357 97.1541 127.941C93.2341 136.024 102.266 178.768 102.266 178.768L100.055 197.223C117.052 202.554 146.17 201.378 146.17 201.378L142.25 184.695C142.25 184.695 152.818 128.71 149.949 124.374Z" fill="#263238"/>
<path d="M117.499 108.192C117.499 108.192 118.761 118.251 114.936 120.423C114.936 120.423 116.849 127.8 123.56 128.263C130.271 128.725 133.234 121.52 133.234 121.52L117.499 108.192Z" fill="white" stroke="#263238" stroke-linecap="round" stroke-linejoin="round"/>
<path d="M153.063 82.3655L170.239 80.7813C170.628 80.7454 171.015 80.8656 171.316 81.1155C171.617 81.3653 171.806 81.7244 171.842 82.1136L172.972 94.3704L152.893 96.2225L151.762 83.9657C151.727 83.5818 151.843 83.1993 152.086 82.9002C152.33 82.601 152.68 82.4091 153.063 82.3655Z" fill="#586AAF"/>
<mask id="mask7_357_1030" style="mask-type:luminance" maskUnits="userSpaceOnUse" x="151" y="80" width="22" height="17">
<path d="M153.063 82.3655L170.239 80.7813C170.628 80.7454 171.015 80.8656 171.316 81.1155C171.617 81.3653 171.806 81.7244 171.842 82.1136L172.972 94.3704L152.893 96.2225L151.762 83.9657C151.727 83.5818 151.843 83.1993 152.086 82.9002C152.33 82.601 152.68 82.4091 153.063 82.3655Z" fill="white"/>
</mask>
<g mask="url(#mask7_357_1030)">
<path opacity="0.3" d="M153.063 82.3655L170.239 80.7813C170.628 80.7454 171.015 80.8656 171.316 81.1155C171.617 81.3653 171.806 81.7244 171.842 82.1136L172.972 94.3704L152.893 96.2225L151.762 83.9657C151.727 83.5818 151.843 83.1993 152.086 82.9002C152.33 82.601 152.68 82.4091 153.063 82.3655Z" fill="black" fill-opacity="0.7"/>
<path opacity="0.3" d="M170.739 82.0212L165.797 82.4771L166.709 92.3605L171.65 91.9047L170.739 82.0212Z" fill="white" fill-opacity="0.7"/>
</g>
<path d="M153.063 82.3655L170.239 80.7813C170.628 80.7454 171.015 80.8656 171.316 81.1155C171.617 81.3653 171.806 81.7244 171.842 82.1136L172.972 94.3704L152.893 96.2225L151.762 83.9657C151.727 83.5818 151.843 83.1993 152.086 82.9002C152.33 82.601 152.68 82.4091 153.063 82.3655Z" stroke="#263238" stroke-linecap="round" stroke-linejoin="round"/>
<path d="M182.761 79.6102L199.936 78.026C200.325 77.9901 200.713 78.1103 201.013 78.3602C201.314 78.61 201.503 78.9691 201.539 79.3583L202.669 91.6151L182.559 93.4701L181.428 81.2133C181.392 80.824 181.513 80.4365 181.763 80.1358C182.012 79.8352 182.371 79.6461 182.761 79.6102Z" fill="#586AAF"/>
<mask id="mask8_357_1030" style="mask-type:luminance" maskUnits="userSpaceOnUse" x="181" y="78" width="22" height="16">
<path d="M182.761 79.6102L199.936 78.026C200.325 77.9901 200.713 78.1103 201.013 78.3602C201.314 78.61 201.503 78.9691 201.539 79.3583L202.669 91.6151L182.559 93.4701L181.428 81.2133C181.392 80.824 181.513 80.4365 181.763 80.1358C182.012 79.8352 182.371 79.6461 182.761 79.6102Z" fill="white"/>
</mask>
<g mask="url(#mask8_357_1030)">
<path opacity="0.3" d="M182.761 79.6102L199.936 78.026C200.325 77.9901 200.713 78.1103 201.013 78.3602C201.314 78.61 201.503 78.9691 201.539 79.3583L202.669 91.6151L182.559 93.4701L181.428 81.2133C181.392 80.824 181.513 80.4365 181.763 80.1358C182.012 79.8352 182.371 79.6461 182.761 79.6102Z" fill="black" fill-opacity="0.7"/>
<path opacity="0.3" d="M200.082 79.3226L197.1 79.5977L198.011 89.4811L200.993 89.2061L200.082 79.3226Z" fill="white" fill-opacity="0.7"/>
</g>
<path d="M182.761 79.6102L199.936 78.026C200.325 77.9901 200.713 78.1103 201.013 78.3602C201.314 78.61 201.503 78.9691 201.539 79.3583L202.669 91.6151L182.559 93.4701L181.428 81.2133C181.392 80.824 181.513 80.4365 181.763 80.1358C182.012 79.8352 182.371 79.6461 182.761 79.6102Z" stroke="#263238" stroke-linecap="round" stroke-linejoin="round"/>
<path d="M176.52 80.1809L193.696 78.5967C194.085 78.5608 194.472 78.681 194.773 78.9309C195.074 79.1807 195.263 79.5398 195.299 79.929L196.429 92.1858L176.287 94.0436L175.157 81.7869C175.139 81.5915 175.16 81.3944 175.219 81.2073C175.278 81.0202 175.374 80.8468 175.501 80.6972C175.628 80.5476 175.784 80.4249 175.959 80.3362C176.134 80.2476 176.325 80.1948 176.52 80.1809Z" fill="#586AAF" stroke="#263238" stroke-linecap="round" stroke-linejoin="round"/>
<path d="M206.186 77.4442L223.362 75.86C223.751 75.8241 224.138 75.9443 224.439 76.1941C224.74 76.444 224.929 76.803 224.965 77.1923L226.095 89.4491L205.985 91.304L204.854 79.0473C204.818 78.658 204.938 78.2704 205.188 77.9698C205.438 77.6692 205.797 77.4801 206.186 77.4442Z" fill="#586AAF" stroke="#263238" stroke-linecap="round" stroke-linejoin="round"/>
<path opacity="0.3" d="M194.166 79.863L189.225 80.3188L190.136 90.2023L195.078 89.7465L194.166 79.863Z" fill="white" fill-opacity="0.7"/>
<path opacity="0.3" d="M223.506 77.1484L218.564 77.6042L219.476 87.4877L224.418 87.0319L223.506 77.1484Z" fill="white" fill-opacity="0.7"/>
<path d="M234.582 85.7855L239.787 142.139L148.961 150.528L143.787 94.1586C143.699 93.2167 143.99 92.2787 144.594 91.551C145.198 90.8232 146.067 90.3652 147.009 90.2778L230.709 82.5554C231.175 82.5123 231.646 82.5617 232.093 82.7008C232.541 82.84 232.956 83.0661 233.316 83.3662C233.676 83.6663 233.973 84.0345 234.19 84.4496C234.407 84.8648 234.54 85.3187 234.582 85.7855Z" fill="#586AAF"/>
<mask id="mask9_357_1030" style="mask-type:luminance" maskUnits="userSpaceOnUse" x="143" y="82" width="97" height="69">
<path d="M234.582 85.7855L239.787 142.139L148.961 150.528L143.787 94.1586C143.699 93.2167 143.99 92.2787 144.594 91.551C145.198 90.8232 146.067 90.3652 147.009 90.2778L230.709 82.5554C231.175 82.5123 231.646 82.5617 232.093 82.7008C232.541 82.84 232.956 83.0661 233.316 83.3662C233.676 83.6663 233.973 84.0345 234.19 84.4496C234.407 84.8648 234.54 85.3187 234.582 85.7855Z" fill="white"/>
</mask>
<g mask="url(#mask9_357_1030)">
<path opacity="0.3" d="M234.582 85.7855L239.787 142.139L148.961 150.528L143.787 94.1586C143.699 93.2167 143.99 92.2787 144.594 91.551C145.198 90.8232 146.067 90.3652 147.009 90.2778L230.709 82.5554C231.175 82.5123 231.646 82.5617 232.093 82.7008C232.541 82.84 232.956 83.0661 233.316 83.3662C233.676 83.6663 233.973 84.0345 234.19 84.4496C234.407 84.8648 234.54 85.3187 234.582 85.7855Z" fill="black" fill-opacity="0.7"/>
</g>
<path d="M234.582 85.7855L239.787 142.139L148.961 150.528L143.787 94.1586C143.699 93.2167 143.99 92.2787 144.594 91.5509C145.198 90.8232 146.067 90.3652 147.009 90.2778L230.709 82.5554C231.175 82.5123 231.646 82.5617 232.093 82.7008C232.541 82.84 232.956 83.0661 233.316 83.3662C233.676 83.6663 233.973 84.0345 234.19 84.4496C234.407 84.8648 234.54 85.3187 234.582 85.7855Z" stroke="#263238" stroke-linecap="round" stroke-linejoin="round"/>
<path d="M234.582 85.7854L239.788 142.139L172.364 148.356L167.166 92.0025C167.078 91.0606 167.369 90.1226 167.973 89.3949C168.577 88.6671 169.446 88.2091 170.388 88.1217L230.67 82.5553C231.139 82.5067 231.614 82.552 232.066 82.6886C232.518 82.8252 232.938 83.0504 233.302 83.351C233.666 83.6516 233.967 84.0217 234.187 84.4396C234.406 84.8575 234.541 85.315 234.582 85.7854Z" fill="#586AAF" stroke="#263238" stroke-linecap="round" stroke-linejoin="round"/>
<path opacity="0.3" d="M230.215 88.2079L172.615 93.5235C172.231 93.5497 171.853 93.425 171.56 93.176C171.267 92.927 171.083 92.5734 171.047 92.1907C171.019 91.8079 171.141 91.4292 171.389 91.1361C171.637 90.8429 171.99 90.6586 172.372 90.6227L229.972 85.3071C230.356 85.2809 230.735 85.4056 231.028 85.6546C231.32 85.9036 231.504 86.2572 231.54 86.6399C231.565 87.0218 231.44 87.3983 231.193 87.6906C230.946 87.9828 230.596 88.1682 230.215 88.2079Z" fill="white" fill-opacity="0.7"/>
<path d="M129.001 88.2472C129.001 88.2472 115.712 85.5816 114.223 94.1351C112.733 102.689 117.602 106.326 117.602 106.326L129.001 88.2472Z" fill="#263238"/>
<path d="M117.601 111.022C116.083 106.77 115.846 102.166 116.919 97.7806C118.221 92.2926 124.759 84.7427 134.677 91.6027C139.781 95.1386 140.094 102.814 138.503 109.839C138.127 111.516 138.409 113.155 137.852 114.699C135.892 120.109 132.309 124.272 130.349 124.366C127.08 124.531 120.541 120.572 120.808 117.122" fill="white"/>
<path d="M117.601 111.022C116.083 106.77 115.846 102.166 116.919 97.7806C118.221 92.2926 124.759 84.7427 134.677 91.6027C139.781 95.1386 140.094 102.814 138.503 109.839C138.127 111.516 138.409 113.155 137.852 114.699C135.892 120.109 132.309 124.272 130.349 124.366C127.08 124.531 120.541 120.572 120.808 117.122" stroke="#263238" stroke-linecap="round" stroke-linejoin="round"/>
<path d="M130.842 108.537C130.842 108.537 128.2 106.624 125.66 108.192" stroke="#263238" stroke-linecap="round" stroke-linejoin="round"/>
<path d="M135.828 108.192C135.828 108.192 137.827 106.358 139.129 106.624" stroke="#263238" stroke-linecap="round" stroke-linejoin="round"/>
<path d="M127.111 111.469C127.111 111.955 127.354 112.355 127.66 112.355C127.966 112.355 128.217 111.955 128.217 111.469C128.217 110.983 127.966 110.591 127.66 110.591C127.354 110.591 127.111 110.983 127.111 111.469Z" fill="#263238"/>
<path d="M135.828 111.861C136.136 111.861 136.385 111.468 136.385 110.983C136.385 110.498 136.136 110.105 135.828 110.105C135.521 110.105 135.271 110.498 135.271 110.983C135.271 111.468 135.521 111.861 135.828 111.861Z" fill="#263238"/>
<path d="M134.707 110.042C133.735 111.312 135.099 116.15 134.707 116.495C134.315 116.84 131.822 115.86 131.822 115.86C131.822 115.86 131.242 115.123 132.457 114.731" stroke="#263238" stroke-linecap="round" stroke-linejoin="round"/>
<path d="M132.497 118.925C132.497 118.925 129.15 118.925 128.256 117.702" stroke="#263238" stroke-linecap="round" stroke-linejoin="round"/>
<path d="M124.485 100.807L124.226 104.852C124.226 104.852 121.356 106.334 120.635 107.839C120.206 108.825 120.049 109.908 120.18 110.975C120.18 110.975 118.44 107.934 117.499 108.184C117.162 108.271 117.162 109.549 117.162 109.549C117.162 109.549 113.242 100.799 116.786 96.1735C120.329 91.5479 124.485 100.807 124.485 100.807Z" fill="#757575" stroke="#263238" stroke-linecap="round" stroke-linejoin="round"/>
<path d="M118.957 110.105C118.957 110.105 118.173 107.165 115.531 106.389C112.888 105.613 114.699 112.661 116.95 113.578C119.2 114.495 119.764 115.146 119.897 114.307" fill="white"/>
<path d="M118.957 110.105C118.957 110.105 118.173 107.165 115.531 106.389C112.888 105.613 114.699 112.661 116.95 113.578C119.2 114.495 119.764 115.146 119.897 114.307" stroke="#263238" stroke-linecap="round" stroke-linejoin="round"/>
<path d="M115.359 100.297C115.14 99.9992 114.167 92.4571 119.146 89.0702C124.124 85.6834 132.537 86.044 137.891 90.7323C143.246 95.4206 141.725 103.551 137.891 106.326V102.931C137.891 102.931 136.127 106.334 130.835 106.616L132.45 104.123C132.45 104.123 129.847 105.691 125.261 105.558C125.261 105.558 127.417 103.841 127.103 102.312C127.111 102.312 119.828 106.412 115.359 100.297Z" fill="#263238"/>
<path d="M116.292 127.486C112.623 127.925 107.402 132.716 110.804 141.222C112.976 146.616 130.82 143.409 130.82 143.409C137.437 140.681 147.103 130.865 154.199 126.31C154.199 126.31 152.701 116.902 150.976 118.235C142.956 124.374 136.363 124.797 125.175 130.175C125.198 130.144 118.597 127.212 116.292 127.486Z" fill="white" stroke="#263238" stroke-linecap="round" stroke-linejoin="round"/>
<path d="M124.484 137.929C124.375 141.442 125.817 142.061 128.248 142.892L124.484 137.929Z" fill="white"/>
<path d="M124.484 137.929C124.375 141.442 125.817 142.061 128.248 142.892" stroke="#263238" stroke-linecap="round" stroke-linejoin="round"/>
<path d="M150.443 118.925C150.608 118.415 153.579 113.194 154.418 111.869C155.257 110.544 159.005 109.345 160.455 108.545C161.905 107.745 162.023 106.53 162.807 107.4C163.591 108.27 162.807 110.254 158.464 112.363C160.007 112.448 161.554 112.448 163.097 112.363C164.257 112.19 165.292 111.14 165.81 111.869C166.327 112.598 166.429 113.907 163.842 114.707C162.612 115.153 161.323 115.417 160.016 115.491C161.282 115.762 162.526 116.123 163.74 116.573C164.156 116.879 164.775 117.592 165.394 117.702C166.014 117.812 166.688 118.486 165.551 119.27C165.148 119.493 164.696 119.614 164.236 119.622C163.775 119.63 163.32 119.525 162.909 119.317C162.909 119.317 165.912 120.767 164.979 121.669C164.046 122.571 161.059 122.39 161.059 122.39C161.059 122.39 156.629 127.792 152.882 126.663" fill="white"/>
<path d="M150.443 118.925C150.608 118.415 153.579 113.194 154.418 111.869C155.257 110.544 159.005 109.345 160.455 108.545C161.905 107.745 162.023 106.53 162.807 107.4C163.591 108.27 162.807 110.254 158.464 112.363C160.007 112.448 161.554 112.448 163.097 112.363C164.257 112.19 165.292 111.14 165.81 111.869C166.327 112.598 166.429 113.907 163.842 114.707C162.612 115.153 161.323 115.417 160.016 115.491C161.282 115.762 162.526 116.123 163.74 116.573C164.156 116.879 164.775 117.592 165.394 117.702C166.014 117.812 166.688 118.486 165.551 119.27C165.148 119.493 164.696 119.614 164.236 119.622C163.775 119.63 163.32 119.525 162.909 119.317C162.909 119.317 165.912 120.767 164.979 121.669C164.046 122.571 161.059 122.39 161.059 122.39C161.059 122.39 156.629 127.792 152.882 126.663" stroke="#263238" stroke-linecap="round" stroke-linejoin="round"/>
<path d="M155.75 111.861C156.004 111.92 156.236 112.048 156.421 112.231C156.607 112.413 156.738 112.644 156.801 112.896C157.059 113.821 157.82 113.876 158.282 114.911C158.745 115.946 158.612 117.545 159.066 118.094C159.521 118.643 159.066 120.956 159.066 120.956" stroke="#263238" stroke-linecap="round" stroke-linejoin="round"/>
<path d="M117.059 126.82C115.138 124.374 110.826 125.479 110.826 125.479" stroke="white" stroke-linecap="round" stroke-linejoin="round"/>
<path d="M108.475 120.971C108.475 120.971 112.912 121.622 114.221 125.315" stroke="white" stroke-linecap="round" stroke-linejoin="round"/>
<path d="M116.292 144.35C116.292 144.35 111.965 147.698 105.379 142.892" stroke="white" stroke-linecap="round" stroke-linejoin="round"/>
<path d="M110.827 145.362C110.827 145.362 108.632 148.396 103.285 148.356" stroke="white" stroke-linecap="round" stroke-linejoin="round"/>
<path d="M138.33 183.534C138.33 183.534 127.009 192.558 115.508 191.374" stroke="white" stroke-linecap="round" stroke-linejoin="round"/>
<path d="M107.73 163.707C107.73 163.707 125.3 176.596 138.306 177.419" stroke="white" stroke-linecap="round" stroke-linejoin="round"/>
<path d="M108.191 259.12C111.214 257.443 114.767 256.999 118.109 257.881C123.84 259.324 138.728 280.617 140.798 282.695C142.868 284.772 146.741 285.831 150.308 289.586C155.953 295.474 164.161 300.68 164.992 300.68C165.823 300.68 166.49 300.162 167.525 299.958C168.559 299.755 176.572 299.025 176.572 299.025C176.572 299.025 179.261 299.621 176.572 300.774C173.883 301.926 174.087 302.953 174.087 302.953C174.087 302.953 173.546 303.823 174.628 304.655C175.709 305.486 176.345 305.031 177.889 307.218C179.433 309.406 175.709 308.167 175.709 308.167C175.709 308.167 176.533 310.519 174.878 310.284C173.224 310.048 174.675 312.581 171.985 312.236C169.296 311.891 163.542 308.261 162.099 304.459C162.099 304.459 138.626 293.239 135.114 290.347C131.602 287.454 116.815 271.938 115.804 271.734" fill="#263238"/>
<path d="M169.603 280.131H186.851C187.242 280.131 187.617 280.286 187.893 280.563C188.169 280.839 188.325 281.214 188.325 281.605V293.914H168.129V281.605C168.129 281.214 168.284 280.839 168.561 280.563C168.837 280.286 169.212 280.131 169.603 280.131Z" fill="#586AAF"/>
<mask id="mask10_357_1030" style="mask-type:luminance" maskUnits="userSpaceOnUse" x="168" y="280" width="21" height="14">
<path d="M169.603 280.131H186.851C187.242 280.131 187.617 280.286 187.893 280.563C188.169 280.839 188.325 281.214 188.325 281.605V293.914H168.129V281.605C168.129 281.214 168.284 280.839 168.561 280.563C168.837 280.286 169.212 280.131 169.603 280.131Z" fill="white"/>
</mask>
<g mask="url(#mask10_357_1030)">
<path opacity="0.3" d="M169.603 280.131H186.851C187.242 280.131 187.617 280.286 187.893 280.563C188.169 280.839 188.325 281.214 188.325 281.605V293.914H168.129V281.605C168.129 281.214 168.284 280.839 168.561 280.563C168.837 280.286 169.212 280.131 169.603 280.131Z" fill="black" fill-opacity="0.7"/>
<path opacity="0.3" d="M187.203 281.433H182.24V291.358H187.203V281.433Z" fill="white" fill-opacity="0.7"/>
</g>
<path d="M169.603 280.131H186.851C187.242 280.131 187.617 280.286 187.893 280.563C188.169 280.839 188.325 281.214 188.325 281.605V293.914H168.129V281.605C168.129 281.214 168.284 280.839 168.561 280.563C168.837 280.286 169.212 280.131 169.603 280.131Z" stroke="#263238" stroke-linecap="round" stroke-linejoin="round"/>
<path d="M199.394 280.131H216.642C217.033 280.131 217.408 280.286 217.684 280.563C217.96 280.839 218.116 281.214 218.116 281.605V293.914H197.92V281.605C197.92 281.411 197.958 281.22 198.032 281.041C198.106 280.862 198.215 280.7 198.352 280.563C198.488 280.426 198.651 280.317 198.83 280.243C199.009 280.169 199.2 280.131 199.394 280.131Z" fill="#586AAF"/>
<mask id="mask11_357_1030" style="mask-type:luminance" maskUnits="userSpaceOnUse" x="197" y="280" width="22" height="14">
<path d="M199.394 280.131H216.642C217.033 280.131 217.408 280.286 217.684 280.563C217.96 280.839 218.116 281.214 218.116 281.605V293.914H197.92V281.605C197.92 281.411 197.958 281.22 198.032 281.041C198.106 280.862 198.215 280.7 198.352 280.563C198.488 280.426 198.651 280.317 198.83 280.243C199.009 280.169 199.2 280.131 199.394 280.131Z" fill="white"/>
</mask>
<g mask="url(#mask11_357_1030)">
<path opacity="0.3" d="M199.394 280.131H216.642C217.033 280.131 217.408 280.286 217.684 280.563C217.96 280.839 218.116 281.214 218.116 281.605V293.914H197.92V281.605C197.92 281.411 197.958 281.22 198.032 281.041C198.106 280.862 198.215 280.7 198.352 280.563C198.488 280.426 198.651 280.317 198.83 280.243C199.009 280.169 199.2 280.131 199.394 280.131Z" fill="black" fill-opacity="0.7"/>
<path opacity="0.3" d="M216.665 281.433H213.67V291.358H216.665V281.433Z" fill="white" fill-opacity="0.7"/>
</g>
<path d="M199.394 280.131H216.642C217.033 280.131 217.408 280.286 217.684 280.563C217.96 280.839 218.116 281.214 218.116 281.605V293.914H197.92V281.605C197.92 281.411 197.958 281.22 198.032 281.041C198.106 280.862 198.215 280.7 198.352 280.563C198.488 280.426 198.651 280.317 198.83 280.243C199.009 280.169 199.2 280.131 199.394 280.131Z" stroke="#263238" stroke-linecap="round" stroke-linejoin="round"/>
<path d="M193.122 280.131H210.37C210.761 280.131 211.136 280.286 211.413 280.563C211.689 280.839 211.844 281.214 211.844 281.605V293.914H191.648V281.605C191.648 281.411 191.687 281.22 191.761 281.041C191.835 280.862 191.943 280.7 192.08 280.563C192.217 280.426 192.379 280.317 192.558 280.243C192.737 280.169 192.929 280.131 193.122 280.131Z" fill="#586AAF" stroke="#263238" stroke-linecap="round" stroke-linejoin="round"/>
<path d="M222.915 280.131H240.163C240.554 280.131 240.929 280.286 241.206 280.563C241.482 280.839 241.637 281.214 241.637 281.605V293.914H221.441V281.605C221.441 281.214 221.597 280.839 221.873 280.563C222.15 280.286 222.524 280.131 222.915 280.131Z" fill="#586AAF" stroke="#263238" stroke-linecap="round" stroke-linejoin="round"/>
<path opacity="0.3" d="M210.724 281.433H205.762V291.358H210.724V281.433Z" fill="white" fill-opacity="0.7"/>
<path opacity="0.3" d="M240.185 281.433H235.223V291.358H240.185V281.433Z" fill="white" fill-opacity="0.7"/>
<path d="M250.425 291.044V347.641H159.238V291.044C159.238 290.098 159.614 289.191 160.283 288.522C160.952 287.853 161.859 287.477 162.805 287.477H246.858C247.804 287.477 248.712 287.853 249.381 288.522C250.049 289.191 250.425 290.098 250.425 291.044Z" fill="#586AAF"/>
<mask id="mask12_357_1030" style="mask-type:luminance" maskUnits="userSpaceOnUse" x="159" y="287" width="92" height="61">
<path d="M250.425 291.044V347.641H159.238V291.044C159.238 290.098 159.614 289.191 160.283 288.522C160.952 287.853 161.859 287.477 162.805 287.477H246.858C247.804 287.477 248.712 287.853 249.381 288.522C250.049 289.191 250.425 290.098 250.425 291.044Z" fill="white"/>
</mask>
<g mask="url(#mask12_357_1030)">
<path opacity="0.3" d="M250.425 291.044V347.641H159.238V291.044C159.238 290.098 159.614 289.191 160.283 288.522C160.952 287.853 161.859 287.477 162.805 287.477H246.858C247.804 287.477 248.712 287.853 249.381 288.522C250.049 289.191 250.425 290.098 250.425 291.044Z" fill="black" fill-opacity="0.7"/>
</g>
<path d="M250.425 291.044V347.641H159.238V291.044C159.238 290.098 159.614 289.191 160.283 288.522C160.952 287.853 161.859 287.477 162.805 287.477H246.858C247.804 287.477 248.712 287.853 249.381 288.522C250.049 289.191 250.425 290.098 250.425 291.044Z" stroke="#263238" stroke-linecap="round" stroke-linejoin="round"/>
<path d="M250.425 291.044V347.641H182.758V291.044C182.758 290.098 183.134 289.191 183.803 288.522C184.472 287.853 185.379 287.477 186.325 287.477H246.858C247.804 287.477 248.711 287.853 249.38 288.522C250.049 289.191 250.425 290.098 250.425 291.044Z" fill="#586AAF" stroke="#263238" stroke-linecap="round" stroke-linejoin="round"/>
<path opacity="0.3" d="M245.847 293.059H188.004C187.613 293.059 187.238 292.904 186.961 292.628C186.685 292.351 186.53 291.976 186.53 291.585C186.525 291.389 186.561 291.194 186.633 291.012C186.705 290.829 186.813 290.663 186.95 290.523C187.087 290.383 187.251 290.271 187.432 290.195C187.613 290.119 187.807 290.08 188.004 290.08H245.847C246.238 290.08 246.613 290.235 246.889 290.512C247.166 290.788 247.321 291.163 247.321 291.554C247.325 291.75 247.29 291.945 247.218 292.128C247.146 292.31 247.038 292.476 246.901 292.617C246.763 292.757 246.599 292.868 246.418 292.944C246.238 293.02 246.043 293.059 245.847 293.059Z" fill="white" fill-opacity="0.7"/>
<path d="M138.768 347.641C134.064 347.641 127.455 344.615 119.842 341.416C111.947 338.092 102.955 334.58 93.8292 334.055C90.4266 333.859 92.4885 347.641 92.4885 347.641H85.0405C85.0405 347.641 77.6866 337.826 76.832 329.037C76.832 329.037 82.8375 325.329 84.28 325.117C84.7774 325.065 85.2774 325.042 85.7775 325.047C87.3925 325.047 89.5485 325.117 89.5485 325.117C89.2036 324.913 83.7077 321.605 80.6736 318.241C78.1727 315.466 77.028 311.083 76.9418 308.465C77.0387 306.731 77.2298 305.004 77.5141 303.291L116.651 303.941C116.651 303.941 117.075 304.239 117.827 304.796C122.367 308.104 138.956 320.429 147.251 329.719C149.932 332.722 151.743 335.403 152.01 337.363C153.256 346.403 145.863 347.641 138.768 347.641Z" fill="#757575" stroke="#263238" stroke-linecap="round" stroke-linejoin="round"/>
<path d="M147.259 329.703L128.223 334.055C124.96 335.922 122.104 338.425 119.827 341.416C111.932 338.092 102.939 334.58 93.8135 334.055C90.4109 333.859 92.4728 347.641 92.4728 347.641H85.0248C85.0248 347.641 77.6866 337.826 76.832 329.037C76.832 329.037 83.7626 338.915 85.456 343.933C85.456 343.933 88.1452 334.65 92.512 330.926C90.5397 328.705 88.2985 326.738 85.8402 325.07C87.4552 325.07 89.6112 325.141 89.6112 325.141C89.2663 324.937 83.7704 321.628 80.7364 318.265C78.2354 315.489 77.224 311.099 77.0045 308.488C76.8948 307.203 77.0516 303.314 77.0516 303.314C77.0516 303.314 106.24 307.477 117.89 304.819C122.375 308.112 138.964 320.413 147.259 329.703Z" fill="#263238"/>
<path d="M116.66 329.037C116.66 329.037 132.168 336.806 136.307 339.848C140.447 342.89 141.678 342.067 141.678 342.067" stroke="#263238" stroke-linecap="round" stroke-linejoin="round"/>
<path d="M80.6816 328.214C80.6816 328.214 84.4056 333.898 84.6016 335.599" stroke="#263238" stroke-linecap="round" stroke-linejoin="round"/>
<path d="M143.057 219.112C143.057 219.112 151.312 215.522 150.528 230.794C149.744 246.066 152.543 246.85 152.543 246.85C152.543 246.85 131.767 255.38 126.491 248.089C121.215 240.798 126.224 220.845 143.057 219.112Z" fill="#263238"/>
<path d="M141.905 246.85C141.905 246.85 133.359 250.88 132.583 254.604C131.807 258.328 121.105 252.722 121.105 252.722L128.859 241.574L141.905 246.85Z" fill="white" stroke="#263238" stroke-linecap="round" stroke-linejoin="round"/>
<path d="M85.8712 287.728C66.2712 312.691 82.1786 324.733 104.397 322.742L99.944 329.798L111.124 331.734C111.124 331.734 119.693 326.136 131.375 320.154C151.257 309.962 159.293 310.574 157.247 300.374C155.2 290.174 130.834 283.557 106.404 294.306C106.381 294.298 93.1154 278.54 85.8712 287.728Z" fill="#757575" stroke="#263238" stroke-linecap="round" stroke-linejoin="round"/>
<path d="M92.7071 342.067C92.7071 342.067 97.8109 327.955 99.9434 327.171C102.076 326.387 110.135 329.445 111.123 331.718C111.123 331.718 113.844 327.547 114.957 329.319C116.07 331.091 114.463 334.023 114.957 336.265C115.451 338.508 120.962 341.644 123.165 342.059C125.368 342.475 126.623 343.713 126.623 344.952V347.641H92.7071C92.3307 346.76 92.1367 345.812 92.1367 344.854C92.1367 343.896 92.3307 342.948 92.7071 342.067Z" fill="white" stroke="#263238" stroke-linecap="round" stroke-linejoin="round"/>
<path d="M114.957 334.055C114.957 334.055 110.465 336.273 108.827 335.623C107.188 334.972 109.665 339.347 110.285 339.762C110.904 340.178 114.989 338.312 114.989 338.312" stroke="#263238" stroke-linecap="round" stroke-linejoin="round"/>
<path d="M96.9492 331.726C96.9492 331.726 103.049 331.844 104.907 334.078" stroke="#263238" stroke-linecap="round" stroke-linejoin="round"/>
<path d="M92.709 342.067C92.709 342.067 102.431 344.341 103.254 344.341C104.591 344.075 105.902 343.695 107.174 343.204C107.174 343.204 109.839 344.545 111.611 345.376C113.383 346.207 124.939 345.376 124.939 345.376" stroke="#263238" stroke-linecap="round" stroke-linejoin="round"/>
<path d="M104.398 322.757C113.681 321.753 131.713 310.315 137.985 306.34C144.257 302.365 145.825 303.408 145.825 303.408" stroke="#263238" stroke-linecap="round" stroke-linejoin="round"/>
<path d="M76.9961 303.275L78.4779 292.024L82.0529 289.327C87.8467 275.27 114.095 249.014 121.253 249.1C132.002 249.226 133.899 260.508 135.224 272.856C136.549 285.204 119.802 283.345 119.802 283.345V286.442L110.277 291.374L116.047 291.193C116.047 291.193 99.4499 307.328 76.9961 303.275Z" fill="#586AAF" stroke="#263238" stroke-linecap="round" stroke-linejoin="round"/>
<path d="M123.52 227.36C125.77 220.304 136.064 218.422 139.764 219.575C142.802 220.761 145.291 223.032 146.75 225.949C147.691 227.979 145.723 231.57 147.126 233.663C149.133 236.666 148.961 243.001 148.239 246.991C147.847 249.108 139.043 250.363 131.846 245.423C124.116 240.077 121.34 234.15 123.52 227.36Z" fill="white" stroke="#263238" stroke-linecap="round" stroke-linejoin="round"/>
<path d="M133.923 217.466C133.923 217.466 142.986 215.992 143.049 218.32C143.449 233.789 134.174 237.035 134.174 237.035C134.174 237.035 130.387 234.016 129.541 236.086C128.694 238.156 130.874 243.879 133.555 243.996C132.937 244.956 132.599 246.07 132.58 247.211C132.56 248.352 132.86 249.476 133.445 250.457C133.445 250.457 118.094 253.02 116.824 245.909C117.418 243.438 117.842 240.928 118.094 238.399C119.09 228.434 116.762 221.731 133.923 217.466Z" fill="#263238"/>
<path d="M146.027 233.232C147.917 234.933 149.273 234.933 149.25 235.545C149.179 237.45 146.898 238.399 146.898 238.399" fill="white"/>
<path d="M146.027 233.232C147.917 234.933 149.273 234.933 149.25 235.545C149.179 237.45 146.898 238.399 146.898 238.399" stroke="#263238" stroke-linecap="round" stroke-linejoin="round"/>
<path d="M146.85 241.574C145.515 242.026 144.074 242.061 142.719 241.676" stroke="#263238" stroke-linecap="round" stroke-linejoin="round"/>
<path d="M141.825 223.738C141.825 223.738 147.854 221.99 146.749 231.774C146.749 231.774 149.258 228.364 149.25 224.53C149.25 217.889 140.367 219.222 140.367 219.222L141.528 223.926" fill="#263238"/>
<path d="M147.306 228.528C147.078 228.377 146.821 228.273 146.552 228.223C146.282 228.173 146.006 228.178 145.738 228.238" stroke="#263238" stroke-linecap="round" stroke-linejoin="round"/>
<path d="M143.245 228.418C143.245 228.418 140.007 228.607 138.604 230.77" stroke="#263238" stroke-linecap="round" stroke-linejoin="round"/>
<path d="M142.469 233.569C142.516 234.087 142.297 234.534 141.975 234.565C141.654 234.596 141.356 234.196 141.301 233.679C141.246 233.162 141.474 232.715 141.795 232.683C142.117 232.652 142.422 233.052 142.469 233.569Z" fill="#263238"/>
<path d="M104.906 325.109C104.906 325.109 112.119 325.893 113.687 329.029" stroke="#263238" stroke-linecap="round" stroke-linejoin="round"/>
<path d="M123.166 254.392C126.188 252.716 129.742 252.272 133.084 253.154C138.822 254.604 153.703 275.89 155.773 277.967C157.842 280.045 161.715 281.103 165.282 284.859C170.927 290.746 179.136 295.952 179.967 295.952C180.798 295.952 181.464 295.435 182.499 295.231C183.534 295.027 191.546 294.298 191.546 294.298C191.546 294.298 194.236 294.902 191.546 296.046C188.857 297.191 189.061 298.234 189.061 298.234C189.061 298.234 188.528 299.096 189.602 299.927C190.676 300.758 191.319 300.303 192.864 302.491C194.408 304.678 190.684 303.439 190.684 303.439C190.684 303.439 191.507 305.791 189.853 305.556C188.199 305.321 189.649 307.853 186.96 307.508C184.271 307.163 178.516 303.533 177.074 299.731C177.074 299.731 153.601 288.512 150.089 285.619C146.576 282.726 131.806 267.211 130.763 267.007" fill="white"/>
<path d="M123.166 254.392C126.188 252.716 129.742 252.272 133.084 253.154C138.822 254.604 153.703 275.89 155.773 277.967C157.842 280.045 161.715 281.103 165.282 284.859C170.927 290.746 179.136 295.952 179.967 295.952C180.798 295.952 181.464 295.435 182.499 295.231C183.534 295.027 191.546 294.298 191.546 294.298C191.546 294.298 194.236 294.902 191.546 296.046C188.857 297.191 189.061 298.234 189.061 298.234C189.061 298.234 188.528 299.096 189.602 299.927C190.676 300.758 191.319 300.303 192.864 302.491C194.408 304.678 190.684 303.439 190.684 303.439C190.684 303.439 191.507 305.791 189.853 305.556C188.199 305.321 189.649 307.853 186.96 307.508C184.271 307.163 178.516 303.533 177.074 299.731C177.074 299.731 153.601 288.512 150.089 285.619C146.576 282.726 131.806 267.211 130.763 267.007" stroke="#263238" stroke-linecap="round" stroke-linejoin="round"/>
<path d="M119.795 252.119C119.795 252.119 131.367 249.022 135.404 251.295C139.442 253.569 147.094 264.114 147.094 264.114C147.094 264.114 137.764 272.463 134.879 271.703C131.994 270.942 123.166 269.696 123.166 269.696" fill="#586AAF"/>
<path d="M119.795 252.119C119.795 252.119 131.367 249.022 135.404 251.295C139.442 253.569 147.094 264.114 147.094 264.114C147.094 264.114 137.764 272.463 134.879 271.703C131.994 270.942 123.166 269.696 123.166 269.696" stroke="#263238" stroke-linecap="round" stroke-linejoin="round"/>
<path d="M129.831 270.715C129.831 270.715 125.636 273.02 124.092 273.02" stroke="#263238" stroke-linecap="round" stroke-linejoin="round"/>
<path d="M123.166 259.151C123.519 259.77 123.401 266.552 130.763 268.661" stroke="#263238" stroke-linecap="round" stroke-linejoin="round"/>
<path d="M83.8184 289.547C83.8184 289.547 99.4984 292.236 104.908 287.477" stroke="#263238" stroke-linecap="round" stroke-linejoin="round"/>
<path d="M110.27 291.374C110.27 291.374 106.35 290.684 104.908 292.698C103.465 294.713 95.6094 296.618 95.6094 296.618" stroke="#263238" stroke-linecap="round" stroke-linejoin="round"/>
<path d="M78.7523 306.34C78.7523 306.34 76.4865 316.109 86.1532 320.452" stroke="#263238" stroke-linecap="round" stroke-linejoin="round"/>
<path d="M83.8184 307.014C83.8184 307.014 83.8732 311.828 85.3864 314.462L90.1923 316.03L95.5705 313.035C95.5705 313.035 94.4259 306.881 94.324 305.635" stroke="#263238" stroke-linecap="round" stroke-linejoin="round"/>
</svg>
