<svg width="24" height="24" viewBox="0 0 24 24" fill="none" xmlns="http://www.w3.org/2000/svg">
<path d="M10.2676 21C10.4431 21.304 10.6956 21.5565 10.9996 21.732C11.3037 21.9075 11.6485 21.9999 11.9996 21.9999C12.3506 21.9999 12.6955 21.9075 12.9995 21.732C13.3036 21.5565 13.556 21.304 13.7316 21" stroke="#586AAF" stroke-width="2" stroke-linecap="round" stroke-linejoin="round"/>
<path d="M13.9164 2.3139C13.0138 2.00977 12.0519 1.92486 11.11 2.06618C10.1682 2.2075 9.27353 2.57099 8.50001 3.12661C7.7265 3.68222 7.09635 4.41399 6.66169 5.2614C6.22703 6.10881 6.00034 7.04752 6.00036 7.9999C6.00036 12.4989 4.58936 13.9559 3.26036 15.3269C3.12993 15.4702 3.04397 15.6484 3.01292 15.8397C2.98187 16.031 3.00707 16.2272 3.08547 16.4044C3.16386 16.5817 3.29207 16.7323 3.45449 16.838C3.61692 16.9437 3.80656 17 4.00036 16.9999H20.0004C20.1942 17 20.3838 16.9437 20.5462 16.838C20.7086 16.7323 20.8369 16.5817 20.9152 16.4044C20.9936 16.2272 21.0188 16.031 20.9878 15.8397C20.9567 15.6484 20.8708 15.4702 20.7404 15.3269C20.5346 15.115 20.3393 14.893 20.1554 14.6619" stroke="#586AAF" stroke-width="2" stroke-linecap="round" stroke-linejoin="round"/>
<path d="M18 11C19.6569 11 21 9.65685 21 8C21 6.34315 19.6569 5 18 5C16.3431 5 15 6.34315 15 8C15 9.65685 16.3431 11 18 11Z" stroke="#7896B6" stroke-width="2" stroke-linecap="round" stroke-linejoin="round"/>
</svg>
