<svg width="14" height="14" viewBox="0 0 14 14" fill="none" xmlns="http://www.w3.org/2000/svg">
<g clip-path="url(#clip0_226_1848)">
<path d="M7 1.16675C8.13175 1.16654 9.23912 1.49556 10.1871 2.11371C11.1352 2.73185 11.8829 3.61242 12.3392 4.6481C12.7955 5.68378 12.9407 6.82984 12.7571 7.94659C12.5735 9.06334 12.0689 10.1026 11.305 10.9376" stroke="#586AAF" stroke-width="2" stroke-linecap="round" stroke-linejoin="round"/>
<path d="M7 3.5V7L9.33333 8.16667" stroke="#586AAF" stroke-width="2" stroke-linecap="round" stroke-linejoin="round"/>
<path d="M1.45768 5.177C1.2718 5.74205 1.17344 6.33221 1.16602 6.927" stroke="#586AAF" stroke-width="2" stroke-linecap="round" stroke-linejoin="round"/>
<path d="M1.65039 9.33325C1.97793 10.0868 2.46098 10.7627 3.06789 11.3166" stroke="#586AAF" stroke-width="2" stroke-linecap="round" stroke-linejoin="round"/>
<path d="M2.70508 3.05387C2.86785 2.87667 3.04143 2.70972 3.22483 2.55396" stroke="#586AAF" stroke-width="2" stroke-linecap="round" stroke-linejoin="round"/>
<path d="M5.04297 12.4951C6.49762 13.0133 8.09841 12.9336 9.49439 12.2734" stroke="#586AAF" stroke-width="2" stroke-linecap="round" stroke-linejoin="round"/>
</g>
<defs>
<clipPath id="clip0_226_1848">
<rect width="14" height="14" fill="white"/>
</clipPath>
</defs>
</svg>
