<svg width="36" height="36" viewBox="0 0 36 36" fill="none" xmlns="http://www.w3.org/2000/svg">
<path d="M22.5 31.5V19.5C22.5 19.1022 22.342 18.7206 22.0607 18.4393C21.7794 18.158 21.3978 18 21 18H15C14.6022 18 14.2206 18.158 13.9393 18.4393C13.658 18.7206 13.5 19.1022 13.5 19.5V31.5" stroke="#586AAF" stroke-width="2" stroke-linecap="round" stroke-linejoin="round"/>
<path d="M4.5 15.25C4.4999 14.8136 4.595 14.3824 4.77868 13.9865C4.96236 13.5907 5.2302 13.2396 5.5635 12.958L16.0635 3.95945C16.605 3.50182 17.291 3.25073 18 3.25073C18.709 3.25073 19.395 3.50182 19.9365 3.95945L30.4365 12.958C30.7698 13.2396 31.0376 13.5907 31.2213 13.9865C31.405 14.3824 31.5001 14.8136 31.5 15.25V28.75C31.5 29.5456 31.1839 30.3087 30.6213 30.8713C30.0587 31.4339 29.2956 31.75 28.5 31.75H7.5C6.70435 31.75 5.94129 31.4339 5.37868 30.8713C4.81607 30.3087 4.5 29.5456 4.5 28.75V15.25Z" stroke="#586AAF" stroke-width="2" stroke-linecap="round" stroke-linejoin="round"/>
</svg>
