<svg width="37" height="36" viewBox="0 0 37 36" fill="none" xmlns="http://www.w3.org/2000/svg">
<path d="M24.334 31.5V28.5C24.334 26.9087 23.7018 25.3826 22.5766 24.2574C21.4514 23.1321 19.9253 22.5 18.334 22.5H9.33398C7.74269 22.5 6.21656 23.1321 5.09134 24.2574C3.96613 25.3826 3.33398 26.9087 3.33398 28.5V31.5" stroke="#586AAF" stroke-width="2" stroke-linecap="round" stroke-linejoin="round"/>
<path d="M13.834 16.5C17.1477 16.5 19.834 13.8137 19.834 10.5C19.834 7.18629 17.1477 4.5 13.834 4.5C10.5203 4.5 7.83398 7.18629 7.83398 10.5C7.83398 13.8137 10.5203 16.5 13.834 16.5Z" stroke="#586AAF" stroke-width="2" stroke-linecap="round" stroke-linejoin="round"/>
<path d="M33.334 31.5001V28.5001C33.333 27.1707 32.8905 25.8792 32.076 24.8285C31.2615 23.7779 30.1212 23.0274 28.834 22.6951" stroke="#586AAF" stroke-width="2" stroke-linecap="round" stroke-linejoin="round"/>
<path d="M24.334 4.69507C25.6246 5.02552 26.7685 5.77612 27.5854 6.82853C28.4023 7.88095 28.8457 9.17531 28.8457 10.5076C28.8457 11.8398 28.4023 13.1342 27.5854 14.1866C26.7685 15.239 25.6246 15.9896 24.334 16.3201" stroke="#586AAF" stroke-width="2" stroke-linecap="round" stroke-linejoin="round"/>
</svg>
