<svg width="20" height="20" viewBox="0 0 20 20" fill="none" xmlns="http://www.w3.org/2000/svg">
<g clip-path="url(#clip0_279_2211)">
<path d="M17.6443 5.67658C18.0849 5.2361 18.3325 4.63863 18.3325 4.01562C18.3326 3.39261 18.0852 2.79508 17.6447 2.35449C17.2042 1.9139 16.6068 1.66634 15.9838 1.66626C15.3607 1.66618 14.7632 1.9136 14.3226 2.35408L3.20096 13.4782C3.00748 13.6712 2.86439 13.9087 2.78429 14.1699L1.68346 17.7966C1.66192 17.8686 1.6603 17.9452 1.67875 18.0181C1.69721 18.091 1.73506 18.1576 1.78829 18.2107C1.84152 18.2639 1.90814 18.3016 1.98109 18.32C2.05404 18.3383 2.13059 18.3366 2.20263 18.3149L5.83013 17.2149C6.0911 17.1355 6.32861 16.9933 6.52179 16.8007L17.6443 5.67658Z" stroke="#586AAF" stroke-width="2" stroke-linecap="round" stroke-linejoin="round"/>
<path d="M12.5 4.16675L15.8333 7.50008" stroke="#586AAF" stroke-width="2" stroke-linecap="round" stroke-linejoin="round"/>
</g>
<defs>
<clipPath id="clip0_279_2211">
<rect width="20" height="20" fill="white"/>
</clipPath>
</defs>
</svg>
