<svg width="24" height="25" viewBox="0 0 24 25" fill="none" xmlns="http://www.w3.org/2000/svg">
<path d="M10.2676 21.2764C10.4431 21.5804 10.6956 21.8328 10.9996 22.0084C11.3037 22.1839 11.6485 22.2763 11.9996 22.2763C12.3506 22.2763 12.6955 22.1839 12.9995 22.0084C13.3036 21.8328 13.556 21.5804 13.7316 21.2764" stroke="#586AAF" stroke-width="2" stroke-linecap="round" stroke-linejoin="round"/>
<path d="M13.9164 2.59027C13.0138 2.28614 12.0519 2.20123 11.11 2.34255C10.1682 2.48387 9.27353 2.84736 8.50001 3.40297C7.7265 3.95859 7.09635 4.69035 6.66169 5.53776C6.22703 6.38518 6.00034 7.32388 6.00036 8.27627C6.00036 12.7753 4.58936 14.2323 3.26036 15.6033C3.12993 15.7466 3.04397 15.9248 3.01292 16.1161C2.98187 16.3074 3.00707 16.5035 3.08547 16.6808C3.16386 16.858 3.29207 17.0087 3.45449 17.1144C3.61692 17.2201 3.80656 17.2763 4.00036 17.2763H20.0004C20.1942 17.2763 20.3838 17.2201 20.5462 17.1144C20.7086 17.0087 20.8369 16.858 20.9152 16.6808C20.9936 16.5035 21.0188 16.3074 20.9878 16.1161C20.9567 15.9248 20.8708 15.7466 20.7404 15.6033C20.5346 15.3913 20.3393 15.1694 20.1554 14.9383" stroke="#586AAF" stroke-width="2" stroke-linecap="round" stroke-linejoin="round"/>
<path d="M18 11.2764C19.6569 11.2764 21 9.93322 21 8.27637C21 6.61951 19.6569 5.27637 18 5.27637C16.3431 5.27637 15 6.61951 15 8.27637C15 9.93322 16.3431 11.2764 18 11.2764Z" stroke="#F44336" stroke-width="2" stroke-linecap="round" stroke-linejoin="round"/>
</svg>
