<svg width="20" height="20" viewBox="0 0 20 20" fill="none" xmlns="http://www.w3.org/2000/svg">
<path d="M12.5007 10H8.33398" stroke="#586AAF" stroke-width="2" stroke-linecap="round" stroke-linejoin="round"/>
<path d="M12.5007 6.66675H8.33398" stroke="#586AAF" stroke-width="2" stroke-linecap="round" stroke-linejoin="round"/>
<path d="M15.834 14.1667V4.16667C15.834 3.72464 15.6584 3.30072 15.3458 2.98816C15.0333 2.67559 14.6093 2.5 14.1673 2.5H3.33398" stroke="#586AAF" stroke-width="2" stroke-linecap="round" stroke-linejoin="round"/>
<path d="M6.66602 17.5H16.666C17.108 17.5 17.532 17.3244 17.8445 17.0118C18.1571 16.6993 18.3327 16.2754 18.3327 15.8333V15C18.3327 14.779 18.2449 14.567 18.0886 14.4107C17.9323 14.2545 17.7204 14.1667 17.4993 14.1667H9.16602C8.945 14.1667 8.73304 14.2545 8.57676 14.4107C8.42048 14.567 8.33268 14.779 8.33268 15V15.8333C8.33268 16.2754 8.15709 16.6993 7.84453 17.0118C7.53197 17.3244 7.10804 17.5 6.66602 17.5ZM6.66602 17.5C6.22399 17.5 5.80007 17.3244 5.4875 17.0118C5.17494 16.6993 4.99935 16.2754 4.99935 15.8333V4.16667C4.99935 3.72464 4.82375 3.30072 4.51119 2.98816C4.19863 2.67559 3.77471 2.5 3.33268 2.5C2.89065 2.5 2.46673 2.67559 2.15417 2.98816C1.84161 3.30072 1.66602 3.72464 1.66602 4.16667V5.83333C1.66602 6.05435 1.75381 6.26631 1.91009 6.42259C2.06637 6.57887 2.27834 6.66667 2.49935 6.66667H4.99935" stroke="#586AAF" stroke-width="2" stroke-linecap="round" stroke-linejoin="round"/>
</svg>
