<svg width="36" height="36" viewBox="0 0 36 36" fill="none" xmlns="http://www.w3.org/2000/svg">
<path d="M18.329 3H17.669C16.8734 3 16.1103 3.31607 15.5477 3.87868C14.9851 4.44129 14.669 5.20435 14.669 6V6.27C14.6685 6.79609 14.5296 7.31278 14.2663 7.76826C14.0031 8.22373 13.6246 8.60196 13.169 8.865L12.524 9.24C12.068 9.5033 11.5506 9.64192 11.024 9.64192C10.4974 9.64192 9.98008 9.5033 9.52403 9.24L9.29903 9.12C8.61062 8.72289 7.79278 8.61517 7.02503 8.82046C6.25728 9.02576 5.60235 9.5273 5.20403 10.215L4.87403 10.785C4.47692 11.4734 4.36919 12.2912 4.57449 13.059C4.77978 13.8268 5.28133 14.4817 5.96903 14.88L6.19403 15.03C6.64744 15.2918 7.02446 15.6676 7.2876 16.1202C7.55075 16.5729 7.69087 17.0865 7.69403 17.61V18.375C7.69613 18.9036 7.5585 19.4234 7.29509 19.8818C7.03168 20.3401 6.65184 20.7207 6.19403 20.985L5.96903 21.12C5.28133 21.5183 4.77978 22.1732 4.57449 22.941C4.36919 23.7088 4.47692 24.5266 4.87403 25.215L5.20403 25.785C5.60235 26.4727 6.25728 26.9742 7.02503 27.1795C7.79278 27.3848 8.61062 27.2771 9.29903 26.88L9.52403 26.76C9.98008 26.4967 10.4974 26.3581 11.024 26.3581C11.5506 26.3581 12.068 26.4967 12.524 26.76L13.169 27.135C13.6246 27.398 14.0031 27.7763 14.2663 28.2317C14.5296 28.6872 14.6685 29.2039 14.669 29.73V30C14.669 30.7956 14.9851 31.5587 15.5477 32.1213C16.1103 32.6839 16.8734 33 17.669 33H18.329C19.1247 33 19.8877 32.6839 20.4503 32.1213C21.013 31.5587 21.329 30.7956 21.329 30V29.73C21.3296 29.2039 21.4684 28.6872 21.7317 28.2317C21.995 27.7763 22.3734 27.398 22.829 27.135L23.474 26.76C23.9301 26.4967 24.4474 26.3581 24.974 26.3581C25.5006 26.3581 26.018 26.4967 26.474 26.76L26.699 26.88C27.3874 27.2771 28.2053 27.3848 28.973 27.1795C29.7408 26.9742 30.3957 26.4727 30.794 25.785L31.124 25.2C31.5211 24.5116 31.6289 23.6938 31.4236 22.926C31.2183 22.1582 30.7167 21.5033 30.029 21.105L29.804 20.985C29.3462 20.7207 28.9664 20.3401 28.703 19.8818C28.4396 19.4234 28.3019 18.9036 28.304 18.375V17.625C28.3019 17.0964 28.4396 16.5766 28.703 16.1182C28.9664 15.6599 29.3462 15.2793 29.804 15.015L30.029 14.88C30.7167 14.4817 31.2183 13.8268 31.4236 13.059C31.6289 12.2912 31.5211 11.4734 31.124 10.785L30.794 10.215C30.3957 9.5273 29.7408 9.02576 28.973 8.82046C28.2053 8.61517 27.3874 8.72289 26.699 9.12L26.474 9.24C26.018 9.5033 25.5006 9.64192 24.974 9.64192C24.4474 9.64192 23.9301 9.5033 23.474 9.24L22.829 8.865C22.3734 8.60196 21.995 8.22373 21.7317 7.76826C21.4684 7.31278 21.3296 6.79609 21.329 6.27V6C21.329 5.20435 21.013 4.44129 20.4503 3.87868C19.8877 3.31607 19.1247 3 18.329 3Z" stroke="#586AAF" stroke-width="2" stroke-linecap="round" stroke-linejoin="round"/>
<path d="M18 22.5C20.4853 22.5 22.5 20.4853 22.5 18C22.5 15.5147 20.4853 13.5 18 13.5C15.5147 13.5 13.5 15.5147 13.5 18C13.5 20.4853 15.5147 22.5 18 22.5Z" stroke="#586AAF" stroke-width="2" stroke-linecap="round" stroke-linejoin="round"/>
</svg>
